<svg width="219" height="53" viewBox="0 0 219 53" fill="none" xmlns="http://www.w3.org/2000/svg">
<rect x="1" y="1" width="217" height="51" rx="5" fill="white"/>
<path d="M34.6839 21.12V33H32.4339V26.808L32.5599 23.334H32.5239L29.2299 33H27.1959L23.9199 23.334H23.8839L24.0099 26.808V33H21.7599V21.12H25.3599L27.5019 27.6L28.2579 30.282H28.2939L29.0679 27.618L31.1919 21.12H34.6839ZM41.5377 23.82C42.4497 23.82 43.2477 24.006 43.9317 24.378C44.6277 24.75 45.1677 25.284 45.5517 25.98C45.9477 26.676 46.1457 27.516 46.1457 28.5C46.1457 29.472 45.9477 30.312 45.5517 31.02C45.1677 31.716 44.6277 32.25 43.9317 32.622C43.2477 32.994 42.4497 33.18 41.5377 33.18C40.6377 33.18 39.8397 32.994 39.1437 32.622C38.4477 32.25 37.9017 31.716 37.5057 31.02C37.1217 30.312 36.9297 29.472 36.9297 28.5C36.9297 27.516 37.1217 26.676 37.5057 25.98C37.9017 25.284 38.4477 24.75 39.1437 24.378C39.8397 24.006 40.6377 23.82 41.5377 23.82ZM41.5377 25.656C41.0817 25.656 40.6917 25.764 40.3677 25.98C40.0557 26.184 39.8157 26.496 39.6477 26.916C39.4797 27.336 39.3957 27.864 39.3957 28.5C39.3957 29.136 39.4797 29.664 39.6477 30.084C39.8157 30.504 40.0557 30.822 40.3677 31.038C40.6917 31.242 41.0817 31.344 41.5377 31.344C41.9817 31.344 42.3597 31.242 42.6717 31.038C42.9957 30.822 43.2417 30.504 43.4097 30.084C43.5777 29.664 43.6617 29.136 43.6617 28.5C43.6617 27.864 43.5777 27.336 43.4097 26.916C43.2417 26.496 42.9957 26.184 42.6717 25.98C42.3597 25.764 41.9817 25.656 41.5377 25.656ZM48.2091 33V24H50.3511L50.5131 25.764C50.7531 25.14 51.1011 24.66 51.5571 24.324C52.0251 23.988 52.6071 23.82 53.3031 23.82C53.5071 23.82 53.6931 23.838 53.8611 23.874C54.0291 23.91 54.1671 23.958 54.2751 24.018L53.9871 26.088C53.8671 26.04 53.7171 26.004 53.5371 25.98C53.3691 25.956 53.1471 25.944 52.8711 25.944C52.5111 25.944 52.1631 26.034 51.8271 26.214C51.4911 26.382 51.2151 26.646 50.9991 27.006C50.7831 27.354 50.6751 27.798 50.6751 28.338V33H48.2091ZM59.8031 33.18C58.8551 33.18 58.0271 32.994 57.3191 32.622C56.6231 32.25 56.0831 31.716 55.6991 31.02C55.3151 30.324 55.1231 29.484 55.1231 28.5C55.1231 27.516 55.3151 26.676 55.6991 25.98C56.0831 25.284 56.6171 24.75 57.3011 24.378C57.9971 24.006 58.7891 23.82 59.6771 23.82C60.5891 23.82 61.3631 24.006 61.9991 24.378C62.6351 24.738 63.1211 25.236 63.4571 25.872C63.7931 26.496 63.9611 27.21 63.9611 28.014C63.9611 28.254 63.9551 28.482 63.9431 28.698C63.9311 28.914 63.9131 29.106 63.8891 29.274H56.7071V27.564H62.8091L61.6211 27.996C61.6211 27.24 61.4471 26.658 61.0991 26.25C60.7631 25.842 60.2831 25.638 59.6591 25.638C59.2031 25.638 58.8071 25.746 58.4711 25.962C58.1471 26.178 57.9011 26.502 57.7331 26.934C57.5651 27.354 57.4811 27.888 57.4811 28.536C57.4811 29.172 57.5711 29.7 57.7511 30.12C57.9431 30.528 58.2071 30.834 58.5431 31.038C58.8911 31.242 59.3051 31.344 59.7851 31.344C60.3131 31.344 60.7391 31.242 61.0631 31.038C61.3871 30.834 61.6391 30.552 61.8191 30.192L63.7811 30.948C63.5891 31.416 63.2951 31.818 62.8991 32.154C62.5151 32.49 62.0531 32.748 61.5131 32.928C60.9851 33.096 60.4151 33.18 59.8031 33.18ZM75.6568 23.82C76.5688 23.82 77.3668 24.006 78.0508 24.378C78.7468 24.75 79.2868 25.284 79.6708 25.98C80.0668 26.676 80.2648 27.516 80.2648 28.5C80.2648 29.472 80.0668 30.312 79.6708 31.02C79.2868 31.716 78.7468 32.25 78.0508 32.622C77.3668 32.994 76.5688 33.18 75.6568 33.18C74.7568 33.18 73.9588 32.994 73.2628 32.622C72.5668 32.25 72.0208 31.716 71.6248 31.02C71.2408 30.312 71.0488 29.472 71.0488 28.5C71.0488 27.516 71.2408 26.676 71.6248 25.98C72.0208 25.284 72.5668 24.75 73.2628 24.378C73.9588 24.006 74.7568 23.82 75.6568 23.82ZM75.6568 25.656C75.2008 25.656 74.8108 25.764 74.4868 25.98C74.1748 26.184 73.9348 26.496 73.7668 26.916C73.5988 27.336 73.5148 27.864 73.5148 28.5C73.5148 29.136 73.5988 29.664 73.7668 30.084C73.9348 30.504 74.1748 30.822 74.4868 31.038C74.8108 31.242 75.2008 31.344 75.6568 31.344C76.1008 31.344 76.4788 31.242 76.7908 31.038C77.1148 30.822 77.3608 30.504 77.5288 30.084C77.6968 29.664 77.7808 29.136 77.7808 28.5C77.7808 27.864 77.6968 27.336 77.5288 26.916C77.3608 26.496 77.1148 26.184 76.7908 25.98C76.4788 25.764 76.1008 25.656 75.6568 25.656ZM82.3282 33V24H84.5422L84.6862 26.7L84.3802 26.412C84.5242 25.824 84.7522 25.338 85.0642 24.954C85.3762 24.57 85.7542 24.288 86.1982 24.108C86.6542 23.916 87.1522 23.82 87.6922 23.82C88.3162 23.82 88.8682 23.94 89.3482 24.18C89.8402 24.42 90.2242 24.786 90.5002 25.278C90.7882 25.758 90.9322 26.364 90.9322 27.096V33H88.4662V27.798C88.4662 27.03 88.3162 26.502 88.0162 26.214C87.7162 25.914 87.3262 25.764 86.8462 25.764C86.5102 25.764 86.1802 25.848 85.8562 26.016C85.5442 26.172 85.2862 26.43 85.0822 26.79C84.8902 27.15 84.7942 27.63 84.7942 28.23V33H82.3282ZM104.357 20.94C105.533 20.94 106.547 21.186 107.399 21.678C108.251 22.17 108.905 22.872 109.361 23.784C109.829 24.696 110.063 25.788 110.063 27.06C110.063 28.332 109.829 29.424 109.361 30.336C108.905 31.248 108.251 31.95 107.399 32.442C106.547 32.934 105.533 33.18 104.357 33.18C103.181 33.18 102.161 32.934 101.297 32.442C100.445 31.95 99.7847 31.248 99.3167 30.336C98.8607 29.424 98.6327 28.332 98.6327 27.06C98.6327 25.788 98.8607 24.696 99.3167 23.784C99.7847 22.872 100.445 22.17 101.297 21.678C102.161 21.186 103.181 20.94 104.357 20.94ZM104.357 22.974C103.685 22.974 103.115 23.13 102.647 23.442C102.179 23.754 101.819 24.216 101.567 24.828C101.327 25.428 101.207 26.172 101.207 27.06C101.207 27.936 101.327 28.68 101.567 29.292C101.819 29.904 102.179 30.366 102.647 30.678C103.115 30.99 103.685 31.146 104.357 31.146C105.017 31.146 105.581 30.99 106.049 30.678C106.517 30.366 106.871 29.904 107.111 29.292C107.363 28.68 107.489 27.936 107.489 27.06C107.489 26.172 107.363 25.428 107.111 24.828C106.871 24.216 106.517 23.754 106.049 23.442C105.581 23.13 105.017 22.974 104.357 22.974ZM115.449 33.18C114.849 33.18 114.309 33.072 113.829 32.856C113.349 32.64 112.965 32.298 112.677 31.83C112.401 31.35 112.263 30.732 112.263 29.976V24H114.729V29.382C114.729 30.078 114.873 30.564 115.161 30.84C115.449 31.104 115.863 31.236 116.403 31.236C116.655 31.236 116.901 31.194 117.141 31.11C117.381 31.014 117.591 30.87 117.771 30.678C117.963 30.486 118.113 30.24 118.221 29.94C118.329 29.628 118.383 29.262 118.383 28.842V24H120.849V33H118.653L118.563 31.434C118.263 32.034 117.849 32.478 117.321 32.766C116.805 33.042 116.181 33.18 115.449 33.18ZM123.443 33V24H125.585L125.747 25.764C125.987 25.14 126.335 24.66 126.791 24.324C127.259 23.988 127.841 23.82 128.537 23.82C128.741 23.82 128.927 23.838 129.095 23.874C129.263 23.91 129.401 23.958 129.509 24.018L129.221 26.088C129.101 26.04 128.951 26.004 128.771 25.98C128.603 25.956 128.381 25.944 128.105 25.944C127.745 25.944 127.397 26.034 127.061 26.214C126.725 26.382 126.449 26.646 126.233 27.006C126.017 27.354 125.909 27.798 125.909 28.338V33H123.443ZM146.663 21.12V33H144.179V21.12H146.663ZM138.941 21.12V33H136.457V21.12H138.941ZM145.475 25.998V27.996H137.699V25.998H145.475ZM150.754 22.704C150.238 22.704 149.854 22.596 149.602 22.38C149.35 22.152 149.224 21.822 149.224 21.39C149.224 20.946 149.35 20.616 149.602 20.4C149.854 20.172 150.238 20.058 150.754 20.058C151.27 20.058 151.654 20.172 151.906 20.4C152.158 20.616 152.284 20.946 152.284 21.39C152.284 21.822 152.158 22.152 151.906 22.38C151.654 22.596 151.27 22.704 150.754 22.704ZM151.978 24V33H149.512V24H151.978ZM158.192 33.18C157.28 33.18 156.446 33.018 155.69 32.694C154.946 32.37 154.34 31.914 153.872 31.326L155.294 29.886C155.582 30.318 155.966 30.672 156.446 30.948C156.926 31.224 157.496 31.362 158.156 31.362C158.624 31.362 158.996 31.296 159.272 31.164C159.56 31.02 159.704 30.798 159.704 30.498C159.704 30.306 159.638 30.144 159.506 30.012C159.374 29.868 159.11 29.754 158.714 29.67L157.13 29.346C156.086 29.13 155.342 28.806 154.898 28.374C154.466 27.93 154.25 27.36 154.25 26.664C154.25 26.172 154.394 25.71 154.682 25.278C154.982 24.846 155.426 24.498 156.014 24.234C156.602 23.958 157.334 23.82 158.21 23.82C159.11 23.82 159.89 23.964 160.55 24.252C161.222 24.528 161.75 24.942 162.134 25.494L160.658 26.934C160.394 26.514 160.046 26.196 159.614 25.98C159.194 25.752 158.75 25.638 158.282 25.638C157.946 25.638 157.658 25.674 157.418 25.746C157.178 25.818 156.998 25.92 156.878 26.052C156.758 26.172 156.698 26.328 156.698 26.52C156.698 26.712 156.782 26.88 156.95 27.024C157.118 27.156 157.424 27.27 157.868 27.366L159.704 27.744C160.592 27.924 161.228 28.23 161.612 28.662C161.996 29.082 162.188 29.592 162.188 30.192C162.188 30.768 162.032 31.284 161.72 31.74C161.42 32.184 160.97 32.538 160.37 32.802C159.782 33.054 159.056 33.18 158.192 33.18ZM167.34 21.246V30.066C167.34 30.498 167.448 30.816 167.664 31.02C167.892 31.212 168.198 31.308 168.582 31.308C168.882 31.308 169.146 31.266 169.374 31.182C169.602 31.086 169.806 30.96 169.986 30.804L170.382 32.442C170.094 32.67 169.734 32.85 169.302 32.982C168.87 33.114 168.414 33.18 167.934 33.18C167.334 33.18 166.8 33.09 166.332 32.91C165.876 32.73 165.516 32.442 165.252 32.046C165 31.65 164.874 31.122 164.874 30.462V21.93L167.34 21.246ZM170.22 24V25.836H163.218V24H170.22ZM175.993 23.82C176.905 23.82 177.703 24.006 178.387 24.378C179.083 24.75 179.623 25.284 180.007 25.98C180.403 26.676 180.601 27.516 180.601 28.5C180.601 29.472 180.403 30.312 180.007 31.02C179.623 31.716 179.083 32.25 178.387 32.622C177.703 32.994 176.905 33.18 175.993 33.18C175.093 33.18 174.295 32.994 173.599 32.622C172.903 32.25 172.357 31.716 171.961 31.02C171.577 30.312 171.385 29.472 171.385 28.5C171.385 27.516 171.577 26.676 171.961 25.98C172.357 25.284 172.903 24.75 173.599 24.378C174.295 24.006 175.093 23.82 175.993 23.82ZM175.993 25.656C175.537 25.656 175.147 25.764 174.823 25.98C174.511 26.184 174.271 26.496 174.103 26.916C173.935 27.336 173.851 27.864 173.851 28.5C173.851 29.136 173.935 29.664 174.103 30.084C174.271 30.504 174.511 30.822 174.823 31.038C175.147 31.242 175.537 31.344 175.993 31.344C176.437 31.344 176.815 31.242 177.127 31.038C177.451 30.822 177.697 30.504 177.865 30.084C178.033 29.664 178.117 29.136 178.117 28.5C178.117 27.864 178.033 27.336 177.865 26.916C177.697 26.496 177.451 26.184 177.127 25.98C176.815 25.764 176.437 25.656 175.993 25.656ZM182.664 33V24H184.806L184.968 25.764C185.208 25.14 185.556 24.66 186.012 24.324C186.48 23.988 187.062 23.82 187.758 23.82C187.962 23.82 188.148 23.838 188.316 23.874C188.484 23.91 188.622 23.958 188.73 24.018L188.442 26.088C188.322 26.04 188.172 26.004 187.992 25.98C187.824 25.956 187.602 25.944 187.326 25.944C186.966 25.944 186.618 26.034 186.282 26.214C185.946 26.382 185.67 26.646 185.454 27.006C185.238 27.354 185.13 27.798 185.13 28.338V33H182.664ZM198.718 24L195.082 33.558C194.794 34.374 194.47 35.022 194.11 35.502C193.762 35.982 193.354 36.33 192.886 36.546C192.43 36.762 191.884 36.87 191.248 36.87C190.78 36.87 190.348 36.81 189.952 36.69C189.568 36.582 189.232 36.438 188.944 36.258L189.466 34.476C189.694 34.656 189.934 34.782 190.186 34.854C190.438 34.938 190.726 34.98 191.05 34.98C191.386 34.98 191.674 34.908 191.914 34.764C192.166 34.62 192.376 34.332 192.544 33.9L192.85 33.126L191.86 30.786L189.106 24H191.842L193.552 29.4L194.02 31.2L194.578 29.292L196.216 24H198.718Z" fill="#2947A9"/>
<rect x="1" y="1" width="217" height="51" rx="5" stroke="#2947A9" stroke-width="2"/>
</svg>
