<svg width="273" height="28" viewBox="0 0 273 28" fill="none" xmlns="http://www.w3.org/2000/svg">
<rect x="16" width="7" height="28" fill="#F9995D"/>
<path d="M50.216 22H48.176L46.496 17.608H39.32L37.64 22H35.624L41.792 6.16H44.072L50.216 22ZM40.016 15.808H45.8L42.896 8.008L40.016 15.808ZM67.4909 10H69.6269L65.4509 22H63.5309L60.1469 12.448L56.9549 22H55.0349L50.8589 10H52.9949L56.0189 19.768L59.2829 10H61.2029L64.4669 19.768L67.4909 10ZM79.2556 14.248C79.2556 13.352 79.0156 12.664 78.5356 12.184C78.0556 11.688 77.3756 11.44 76.4956 11.44C75.6636 11.44 74.9596 11.624 74.3836 11.992C73.8076 12.344 73.3836 12.92 73.1116 13.72L71.5516 12.76C71.8716 11.864 72.4636 11.144 73.3276 10.6C74.1916 10.04 75.2636 9.76 76.5436 9.76C77.4076 9.76 78.1916 9.912 78.8956 10.216C79.5996 10.504 80.1516 10.952 80.5516 11.56C80.9676 12.152 81.1756 12.92 81.1756 13.864V19.672C81.1756 20.248 81.4796 20.536 82.0876 20.536C82.3916 20.536 82.6876 20.496 82.9756 20.416L82.8796 21.928C82.5596 22.088 82.1436 22.168 81.6316 22.168C81.1676 22.168 80.7516 22.08 80.3836 21.904C80.0156 21.728 79.7276 21.464 79.5196 21.112C79.3116 20.744 79.2076 20.288 79.2076 19.744V19.504L79.6876 19.576C79.4956 20.2 79.1676 20.712 78.7036 21.112C78.2396 21.496 77.7196 21.784 77.1436 21.976C76.5676 22.152 75.9996 22.24 75.4396 22.24C74.7356 22.24 74.0796 22.12 73.4716 21.88C72.8636 21.64 72.3756 21.28 72.0076 20.8C71.6556 20.304 71.4796 19.696 71.4796 18.976C71.4796 18.08 71.7756 17.344 72.3676 16.768C72.9756 16.176 73.8156 15.776 74.8876 15.568L79.6396 14.632V16.216L75.7756 17.008C74.9916 17.168 74.4076 17.392 74.0236 17.68C73.6396 17.968 73.4476 18.368 73.4476 18.88C73.4476 19.376 73.6396 19.784 74.0236 20.104C74.4236 20.408 74.9836 20.56 75.7036 20.56C76.1676 20.56 76.6076 20.504 77.0236 20.392C77.4556 20.264 77.8396 20.08 78.1756 19.84C78.5116 19.584 78.7756 19.272 78.9676 18.904C79.1596 18.52 79.2556 18.072 79.2556 17.56V14.248ZM85.8414 22V10H87.4014L87.6654 11.968C88.0014 11.232 88.4894 10.68 89.1294 10.312C89.7854 9.944 90.5774 9.76 91.5054 9.76C91.7134 9.76 91.9374 9.776 92.1774 9.808C92.4334 9.84 92.6494 9.904 92.8254 10L92.4894 11.752C92.3134 11.688 92.1214 11.64 91.9134 11.608C91.7054 11.576 91.4094 11.56 91.0254 11.56C90.5294 11.56 90.0254 11.704 89.5134 11.992C89.0174 12.28 88.6014 12.72 88.2654 13.312C87.9294 13.888 87.7614 14.624 87.7614 15.52V22H85.8414ZM99.9433 22.24C98.9513 22.24 98.0393 21.992 97.2073 21.496C96.3753 21 95.7113 20.288 95.2153 19.36C94.7193 18.416 94.4713 17.296 94.4713 16C94.4713 14.672 94.7353 13.544 95.2633 12.616C95.7913 11.688 96.4873 10.984 97.3513 10.504C98.2153 10.008 99.1433 9.76 100.135 9.76C101.127 9.76 101.983 10.016 102.703 10.528C103.439 11.04 103.927 11.72 104.167 12.568L103.927 12.736V4.48H105.847V22H104.167L103.999 19.096L104.263 18.952C104.151 19.656 103.879 20.256 103.447 20.752C103.031 21.232 102.511 21.6 101.887 21.856C101.279 22.112 100.631 22.24 99.9433 22.24ZM100.135 20.56C100.903 20.56 101.567 20.368 102.127 19.984C102.703 19.6 103.143 19.056 103.447 18.352C103.767 17.632 103.927 16.792 103.927 15.832C103.927 14.92 103.767 14.136 103.447 13.48C103.143 12.824 102.711 12.32 102.151 11.968C101.607 11.616 100.967 11.44 100.231 11.44C99.0153 11.44 98.0713 11.856 97.3993 12.688C96.7273 13.52 96.3913 14.624 96.3913 16C96.3913 17.376 96.7193 18.48 97.3753 19.312C98.0313 20.144 98.9513 20.56 100.135 20.56ZM114.63 22.24C113.462 22.24 112.382 21.992 111.39 21.496C110.414 21 109.662 20.296 109.134 19.384L110.766 18.208C111.118 18.944 111.63 19.52 112.302 19.936C112.99 20.352 113.814 20.56 114.774 20.56C115.622 20.56 116.286 20.4 116.766 20.08C117.246 19.744 117.486 19.312 117.486 18.784C117.486 18.448 117.374 18.144 117.15 17.872C116.942 17.584 116.534 17.376 115.926 17.248L113.046 16.648C111.878 16.408 111.038 16.008 110.526 15.448C110.03 14.888 109.782 14.192 109.782 13.36C109.782 12.704 109.966 12.104 110.334 11.56C110.718 11.016 111.254 10.584 111.942 10.264C112.646 9.928 113.47 9.76 114.414 9.76C115.598 9.76 116.598 9.992 117.414 10.456C118.23 10.92 118.838 11.576 119.238 12.424L117.63 13.48C117.358 12.776 116.918 12.264 116.31 11.944C115.702 11.608 115.07 11.44 114.414 11.44C113.838 11.44 113.342 11.52 112.926 11.68C112.526 11.84 112.214 12.064 111.99 12.352C111.782 12.624 111.678 12.936 111.678 13.288C111.678 13.64 111.798 13.968 112.038 14.272C112.278 14.56 112.726 14.768 113.382 14.896L116.382 15.52C117.502 15.744 118.286 16.112 118.734 16.624C119.182 17.136 119.406 17.76 119.406 18.496C119.406 19.248 119.206 19.912 118.806 20.488C118.406 21.048 117.846 21.48 117.126 21.784C116.406 22.088 115.574 22.24 114.63 22.24ZM133.872 22L129.192 6.16H131.184L135.096 20.248L138.816 6.16H141L144.72 20.296L148.632 6.16H150.528L145.872 22H143.496L140.688 11.728L139.872 8.152H139.848L139.032 11.728L136.248 22H133.872ZM154.583 7.696C154.151 7.696 153.799 7.568 153.527 7.312C153.271 7.04 153.143 6.688 153.143 6.256C153.143 5.824 153.271 5.48 153.527 5.224C153.799 4.952 154.151 4.816 154.583 4.816C155.015 4.816 155.359 4.952 155.615 5.224C155.887 5.48 156.023 5.824 156.023 6.256C156.023 6.688 155.887 7.04 155.615 7.312C155.359 7.568 155.015 7.696 154.583 7.696ZM155.543 10V22H153.623V10H155.543ZM159.998 22V10H161.678L161.846 12.688L161.534 12.424C161.79 11.784 162.134 11.272 162.566 10.888C162.998 10.488 163.494 10.2 164.054 10.024C164.63 9.848 165.222 9.76 165.83 9.76C166.694 9.76 167.478 9.928 168.182 10.264C168.886 10.584 169.446 11.08 169.862 11.752C170.294 12.424 170.51 13.28 170.51 14.32V22H168.59V14.992C168.59 13.664 168.302 12.744 167.726 12.232C167.166 11.704 166.47 11.44 165.638 11.44C165.062 11.44 164.486 11.576 163.91 11.848C163.334 12.12 162.854 12.56 162.47 13.168C162.102 13.776 161.918 14.592 161.918 15.616V22H159.998Z" fill="#667299"/>
</svg>
