<svg width="208" height="40" viewBox="0 0 208 40" fill="none" xmlns="http://www.w3.org/2000/svg">
<rect width="208" height="40" transform="translate(208 40) rotate(-180)" fill="#292E3D"/>
<path d="M102.824 26.5L102.824 14.62L107.054 14.62C108.458 14.62 109.484 14.914 110.132 15.502C110.78 16.09 111.104 16.888 111.104 17.896C111.104 18.496 110.93 19.042 110.582 19.534C110.234 20.014 109.742 20.32 109.106 20.452L109.106 20.47C109.814 20.602 110.372 20.926 110.78 21.442C111.2 21.946 111.41 22.522 111.41 23.17C111.41 24.178 111.032 24.988 110.276 25.6C109.52 26.2 108.44 26.5 107.036 26.5L102.824 26.5ZM104.264 25.15L107.378 25.15C108.23 25.15 108.86 24.976 109.268 24.628C109.688 24.28 109.898 23.794 109.898 23.17C109.898 22.534 109.688 22.048 109.268 21.712C108.86 21.364 108.23 21.19 107.378 21.19L104.264 21.19L104.264 25.15ZM104.264 19.84L107.072 19.84C108.752 19.84 109.592 19.192 109.592 17.896C109.592 16.612 108.752 15.97 107.072 15.97L104.264 15.97L104.264 19.84ZM119.57 20.686C119.57 20.014 119.39 19.498 119.03 19.138C118.67 18.766 118.16 18.58 117.5 18.58C116.876 18.58 116.348 18.718 115.916 18.994C115.484 19.258 115.166 19.69 114.962 20.29L113.792 19.57C114.032 18.898 114.476 18.358 115.124 17.95C115.772 17.53 116.576 17.32 117.536 17.32C118.184 17.32 118.772 17.434 119.3 17.662C119.828 17.878 120.242 18.214 120.542 18.67C120.854 19.114 121.01 19.69 121.01 20.398L121.01 24.754C121.01 25.186 121.238 25.402 121.694 25.402C121.922 25.402 122.144 25.372 122.36 25.312L122.288 26.446C122.048 26.566 121.736 26.626 121.352 26.626C121.004 26.626 120.692 26.56 120.416 26.428C120.14 26.296 119.924 26.098 119.768 25.834C119.612 25.558 119.534 25.216 119.534 24.808L119.534 24.628L119.894 24.682C119.75 25.15 119.504 25.534 119.156 25.834C118.808 26.122 118.418 26.338 117.986 26.482C117.554 26.614 117.128 26.68 116.708 26.68C116.18 26.68 115.688 26.59 115.232 26.41C114.776 26.23 114.41 25.96 114.134 25.6C113.87 25.228 113.738 24.772 113.738 24.232C113.738 23.56 113.96 23.008 114.404 22.576C114.86 22.132 115.49 21.832 116.294 21.676L119.858 20.974L119.858 22.162L116.96 22.756C116.372 22.876 115.934 23.044 115.646 23.26C115.358 23.476 115.214 23.776 115.214 24.16C115.214 24.532 115.358 24.838 115.646 25.078C115.946 25.306 116.366 25.42 116.906 25.42C117.254 25.42 117.584 25.378 117.896 25.294C118.22 25.198 118.508 25.06 118.76 24.88C119.012 24.688 119.21 24.454 119.354 24.178C119.498 23.89 119.57 23.554 119.57 23.17L119.57 20.686ZM128.235 17.32C128.859 17.32 129.405 17.416 129.873 17.608C130.353 17.8 130.767 18.076 131.115 18.436C131.463 18.796 131.745 19.222 131.961 19.714L130.593 20.362C130.401 19.786 130.107 19.348 129.711 19.048C129.327 18.736 128.823 18.58 128.199 18.58C127.599 18.58 127.083 18.718 126.651 18.994C126.219 19.258 125.889 19.648 125.661 20.164C125.433 20.668 125.319 21.28 125.319 22C125.319 22.708 125.433 23.32 125.661 23.836C125.889 24.352 126.219 24.748 126.651 25.024C127.083 25.288 127.599 25.42 128.199 25.42C128.667 25.42 129.069 25.348 129.405 25.204C129.753 25.06 130.035 24.85 130.251 24.574C130.479 24.298 130.635 23.962 130.719 23.566L132.051 24.034C131.847 24.586 131.565 25.06 131.205 25.456C130.857 25.852 130.431 26.158 129.927 26.374C129.435 26.578 128.871 26.68 128.235 26.68C127.395 26.68 126.645 26.494 125.985 26.122C125.325 25.75 124.809 25.216 124.437 24.52C124.065 23.812 123.879 22.972 123.879 22C123.879 21.028 124.065 20.194 124.437 19.498C124.809 18.79 125.325 18.25 125.985 17.878C126.645 17.506 127.395 17.32 128.235 17.32ZM142.483 17.5L138.595 21.388L138.253 21.73L135.301 24.682L135.301 22.882L140.665 17.5L142.483 17.5ZM136.021 13.36L136.021 26.5L134.581 26.5L134.581 13.36L136.021 13.36ZM138.721 20.65L142.699 26.5L140.953 26.5L137.515 21.46L138.721 20.65Z" fill="white"/>
<path fill-rule="evenodd" clip-rule="evenodd" d="M90.5 20C90.5 19.7496 90.4022 19.5094 90.228 19.3323C90.0539 19.1552 89.8177 19.0557 89.5715 19.0557L67.6716 19.0557L73.5157 13.1141C73.602 13.0263 73.6705 12.922 73.7172 12.8073C73.7639 12.6926 73.788 12.5697 73.788 12.4455C73.788 12.3213 73.7639 12.1984 73.7172 12.0837C73.6705 11.969 73.602 11.8647 73.5157 11.7769C73.4293 11.6891 73.3268 11.6195 73.214 11.572C73.1013 11.5245 72.9804 11.5 72.8583 11.5C72.7362 11.5 72.6153 11.5245 72.5025 11.572C72.3897 11.6195 72.2872 11.6891 72.2009 11.7769L64.7728 19.3314C64.6863 19.4191 64.6177 19.5234 64.5709 19.6381C64.5241 19.7528 64.5 19.8758 64.5 20C64.5 20.1242 64.5241 20.2472 64.5709 20.3619C64.6177 20.4766 64.6863 20.5809 64.7728 20.6686L72.2009 28.2231C72.2872 28.3109 72.3897 28.3805 72.5025 28.428C72.6153 28.4755 72.7362 28.5 72.8583 28.5C72.9804 28.5 73.1013 28.4755 73.214 28.428C73.3268 28.3805 73.4293 28.3109 73.5157 28.2231C73.602 28.1353 73.6705 28.031 73.7172 27.9163C73.7639 27.8016 73.788 27.6787 73.788 27.5545C73.788 27.4303 73.7639 27.3074 73.7172 27.1927C73.6705 27.078 73.602 26.9737 73.5157 26.8859L67.6716 20.9443L89.5715 20.9443C89.8177 20.9443 90.0539 20.8448 90.228 20.6677C90.4022 20.4906 90.5 20.2504 90.5 20Z" fill="white"/>
</svg>
