<svg width="232" height="53" viewBox="0 0 232 53" fill="none" xmlns="http://www.w3.org/2000/svg">
<path d="M26.7483 33.18C25.6563 33.18 24.6963 32.94 23.8683 32.46C23.0523 31.98 22.4163 31.284 21.9603 30.372C21.5043 29.46 21.2763 28.362 21.2763 27.078C21.2763 25.806 21.5163 24.714 21.9963 23.802C22.4763 22.878 23.1543 22.17 24.0303 21.678C24.9183 21.186 25.9443 20.94 27.1083 20.94C28.3923 20.94 29.4303 21.18 30.2223 21.66C31.0143 22.128 31.6443 22.86 32.1123 23.856L29.8083 24.846C29.6163 24.21 29.2863 23.742 28.8183 23.442C28.3623 23.13 27.7983 22.974 27.1263 22.974C26.4543 22.974 25.8723 23.136 25.3803 23.46C24.8883 23.772 24.5103 24.234 24.2463 24.846C23.9823 25.446 23.8503 26.184 23.8503 27.06C23.8503 27.96 23.9763 28.722 24.2283 29.346C24.4803 29.958 24.8523 30.42 25.3443 30.732C25.8483 31.032 26.4663 31.182 27.1983 31.182C27.5943 31.182 27.9603 31.134 28.2963 31.038C28.6443 30.942 28.9443 30.798 29.1963 30.606C29.4483 30.414 29.6463 30.168 29.7903 29.868C29.9343 29.568 30.0063 29.22 30.0063 28.824V28.554H26.8923V26.736H32.1483V33H30.4023L30.2223 30.408L30.6543 30.714C30.3903 31.506 29.9223 32.118 29.2503 32.55C28.5903 32.97 27.7563 33.18 26.7483 33.18ZM38.8021 33.18C37.8541 33.18 37.0261 32.994 36.3181 32.622C35.6221 32.25 35.0821 31.716 34.6981 31.02C34.3141 30.324 34.1221 29.484 34.1221 28.5C34.1221 27.516 34.3141 26.676 34.6981 25.98C35.0821 25.284 35.6161 24.75 36.3001 24.378C36.9961 24.006 37.7881 23.82 38.6761 23.82C39.5881 23.82 40.3621 24.006 40.9981 24.378C41.6341 24.738 42.1201 25.236 42.4561 25.872C42.7921 26.496 42.9601 27.21 42.9601 28.014C42.9601 28.254 42.9541 28.482 42.9421 28.698C42.9301 28.914 42.9121 29.106 42.8881 29.274H35.7061V27.564H41.8081L40.6201 27.996C40.6201 27.24 40.4461 26.658 40.0981 26.25C39.7621 25.842 39.2821 25.638 38.6581 25.638C38.2021 25.638 37.8061 25.746 37.4701 25.962C37.1461 26.178 36.9001 26.502 36.7321 26.934C36.5641 27.354 36.4801 27.888 36.4801 28.536C36.4801 29.172 36.5701 29.7 36.7501 30.12C36.9421 30.528 37.2061 30.834 37.5421 31.038C37.8901 31.242 38.3041 31.344 38.7841 31.344C39.3121 31.344 39.7381 31.242 40.0621 31.038C40.3861 30.834 40.6381 30.552 40.8181 30.192L42.7801 30.948C42.5881 31.416 42.2941 31.818 41.8981 32.154C41.5141 32.49 41.0521 32.748 40.5121 32.928C39.9841 33.096 39.4141 33.18 38.8021 33.18ZM48.0777 21.246V30.066C48.0777 30.498 48.1857 30.816 48.4017 31.02C48.6297 31.212 48.9357 31.308 49.3197 31.308C49.6197 31.308 49.8837 31.266 50.1117 31.182C50.3397 31.086 50.5437 30.96 50.7237 30.804L51.1197 32.442C50.8317 32.67 50.4717 32.85 50.0397 32.982C49.6077 33.114 49.1517 33.18 48.6717 33.18C48.0717 33.18 47.5377 33.09 47.0697 32.91C46.6137 32.73 46.2537 32.442 45.9897 32.046C45.7377 31.65 45.6117 31.122 45.6117 30.462V21.93L48.0777 21.246ZM50.9577 24V25.836H43.9557V24H50.9577ZM66.3068 24L62.6708 33.558C62.3828 34.374 62.0588 35.022 61.6988 35.502C61.3508 35.982 60.9428 36.33 60.4748 36.546C60.0188 36.762 59.4728 36.87 58.8368 36.87C58.3688 36.87 57.9368 36.81 57.5408 36.69C57.1568 36.582 56.8208 36.438 56.5328 36.258L57.0548 34.476C57.2828 34.656 57.5228 34.782 57.7748 34.854C58.0268 34.938 58.3148 34.98 58.6388 34.98C58.9748 34.98 59.2628 34.908 59.5028 34.764C59.7548 34.62 59.9648 34.332 60.1328 33.9L60.4388 33.126L59.4488 30.786L56.6948 24H59.4308L61.1408 29.4L61.6088 31.2L62.1668 29.292L63.8048 24H66.3068ZM71.6715 23.82C72.5835 23.82 73.3815 24.006 74.0655 24.378C74.7615 24.75 75.3015 25.284 75.6855 25.98C76.0815 26.676 76.2795 27.516 76.2795 28.5C76.2795 29.472 76.0815 30.312 75.6855 31.02C75.3015 31.716 74.7615 32.25 74.0655 32.622C73.3815 32.994 72.5835 33.18 71.6715 33.18C70.7715 33.18 69.9735 32.994 69.2775 32.622C68.5815 32.25 68.0355 31.716 67.6395 31.02C67.2555 30.312 67.0635 29.472 67.0635 28.5C67.0635 27.516 67.2555 26.676 67.6395 25.98C68.0355 25.284 68.5815 24.75 69.2775 24.378C69.9735 24.006 70.7715 23.82 71.6715 23.82ZM71.6715 25.656C71.2155 25.656 70.8255 25.764 70.5015 25.98C70.1895 26.184 69.9495 26.496 69.7815 26.916C69.6135 27.336 69.5295 27.864 69.5295 28.5C69.5295 29.136 69.6135 29.664 69.7815 30.084C69.9495 30.504 70.1895 30.822 70.5015 31.038C70.8255 31.242 71.2155 31.344 71.6715 31.344C72.1155 31.344 72.4935 31.242 72.8055 31.038C73.1295 30.822 73.3755 30.504 73.5435 30.084C73.7115 29.664 73.7955 29.136 73.7955 28.5C73.7955 27.864 73.7115 27.336 73.5435 26.916C73.3755 26.496 73.1295 26.184 72.8055 25.98C72.4935 25.764 72.1155 25.656 71.6715 25.656ZM81.4749 33.18C80.8749 33.18 80.3349 33.072 79.8549 32.856C79.3749 32.64 78.9909 32.298 78.7029 31.83C78.4269 31.35 78.2889 30.732 78.2889 29.976V24H80.7549V29.382C80.7549 30.078 80.8989 30.564 81.1869 30.84C81.4749 31.104 81.8889 31.236 82.4289 31.236C82.6809 31.236 82.9269 31.194 83.1669 31.11C83.4069 31.014 83.6169 30.87 83.7969 30.678C83.9889 30.486 84.1389 30.24 84.2469 29.94C84.3549 29.628 84.4089 29.262 84.4089 28.842V24H86.8749V33H84.6789L84.5889 31.434C84.2889 32.034 83.8749 32.478 83.3469 32.766C82.8309 33.042 82.2069 33.18 81.4749 33.18ZM89.4698 33V24H91.6118L91.7738 25.764C92.0138 25.14 92.3618 24.66 92.8178 24.324C93.2858 23.988 93.8678 23.82 94.5638 23.82C94.7678 23.82 94.9538 23.838 95.1218 23.874C95.2898 23.91 95.4278 23.958 95.5358 24.018L95.2478 26.088C95.1278 26.04 94.9778 26.004 94.7978 25.98C94.6298 25.956 94.4078 25.944 94.1318 25.944C93.7718 25.944 93.4238 26.034 93.0878 26.214C92.7518 26.382 92.4758 26.646 92.2598 27.006C92.0438 27.354 91.9358 27.798 91.9358 28.338V33H89.4698ZM106.318 23.82C107.122 23.82 107.8 23.94 108.352 24.18C108.916 24.408 109.366 24.726 109.702 25.134C110.05 25.53 110.296 25.974 110.44 26.466L108.136 27.294C108.016 26.754 107.812 26.346 107.524 26.07C107.236 25.794 106.846 25.656 106.354 25.656C105.898 25.656 105.508 25.764 105.184 25.98C104.86 26.184 104.614 26.502 104.446 26.934C104.278 27.354 104.194 27.882 104.194 28.518C104.194 29.154 104.278 29.682 104.446 30.102C104.626 30.522 104.878 30.834 105.202 31.038C105.538 31.242 105.928 31.344 106.372 31.344C106.732 31.344 107.038 31.284 107.29 31.164C107.542 31.032 107.746 30.846 107.902 30.606C108.07 30.366 108.184 30.078 108.244 29.742L110.476 30.462C110.344 31.002 110.098 31.476 109.738 31.884C109.378 32.292 108.916 32.61 108.352 32.838C107.788 33.066 107.134 33.18 106.39 33.18C105.466 33.18 104.65 32.994 103.942 32.622C103.234 32.25 102.688 31.716 102.304 31.02C101.92 30.324 101.728 29.484 101.728 28.5C101.728 27.516 101.92 26.676 102.304 25.98C102.688 25.284 103.228 24.75 103.924 24.378C104.62 24.006 105.418 23.82 106.318 23.82ZM116.496 23.82C117.408 23.82 118.206 24.006 118.89 24.378C119.586 24.75 120.126 25.284 120.51 25.98C120.906 26.676 121.104 27.516 121.104 28.5C121.104 29.472 120.906 30.312 120.51 31.02C120.126 31.716 119.586 32.25 118.89 32.622C118.206 32.994 117.408 33.18 116.496 33.18C115.596 33.18 114.798 32.994 114.102 32.622C113.406 32.25 112.86 31.716 112.464 31.02C112.08 30.312 111.888 29.472 111.888 28.5C111.888 27.516 112.08 26.676 112.464 25.98C112.86 25.284 113.406 24.75 114.102 24.378C114.798 24.006 115.596 23.82 116.496 23.82ZM116.496 25.656C116.04 25.656 115.65 25.764 115.326 25.98C115.014 26.184 114.774 26.496 114.606 26.916C114.438 27.336 114.354 27.864 114.354 28.5C114.354 29.136 114.438 29.664 114.606 30.084C114.774 30.504 115.014 30.822 115.326 31.038C115.65 31.242 116.04 31.344 116.496 31.344C116.94 31.344 117.318 31.242 117.63 31.038C117.954 30.822 118.2 30.504 118.368 30.084C118.536 29.664 118.62 29.136 118.62 28.5C118.62 27.864 118.536 27.336 118.368 26.916C118.2 26.496 117.954 26.184 117.63 25.98C117.318 25.764 116.94 25.656 116.496 25.656ZM123.167 33V24H125.381L125.525 26.7L125.219 26.412C125.363 25.824 125.591 25.338 125.903 24.954C126.215 24.57 126.593 24.288 127.037 24.108C127.493 23.916 127.991 23.82 128.531 23.82C129.155 23.82 129.707 23.94 130.187 24.18C130.679 24.42 131.063 24.786 131.339 25.278C131.627 25.758 131.771 26.364 131.771 27.096V33H129.305V27.798C129.305 27.03 129.155 26.502 128.855 26.214C128.555 25.914 128.165 25.764 127.685 25.764C127.349 25.764 127.019 25.848 126.695 26.016C126.383 26.172 126.125 26.43 125.921 26.79C125.729 27.15 125.633 27.63 125.633 28.23V33H123.167ZM137.912 33.18C137 33.18 136.166 33.018 135.41 32.694C134.666 32.37 134.06 31.914 133.592 31.326L135.014 29.886C135.302 30.318 135.686 30.672 136.166 30.948C136.646 31.224 137.216 31.362 137.876 31.362C138.344 31.362 138.716 31.296 138.992 31.164C139.28 31.02 139.424 30.798 139.424 30.498C139.424 30.306 139.358 30.144 139.226 30.012C139.094 29.868 138.83 29.754 138.434 29.67L136.85 29.346C135.806 29.13 135.062 28.806 134.618 28.374C134.186 27.93 133.97 27.36 133.97 26.664C133.97 26.172 134.114 25.71 134.402 25.278C134.702 24.846 135.146 24.498 135.734 24.234C136.322 23.958 137.054 23.82 137.93 23.82C138.83 23.82 139.61 23.964 140.27 24.252C140.942 24.528 141.47 24.942 141.854 25.494L140.378 26.934C140.114 26.514 139.766 26.196 139.334 25.98C138.914 25.752 138.47 25.638 138.002 25.638C137.666 25.638 137.378 25.674 137.138 25.746C136.898 25.818 136.718 25.92 136.598 26.052C136.478 26.172 136.418 26.328 136.418 26.52C136.418 26.712 136.502 26.88 136.67 27.024C136.838 27.156 137.144 27.27 137.588 27.366L139.424 27.744C140.312 27.924 140.948 28.23 141.332 28.662C141.716 29.082 141.908 29.592 141.908 30.192C141.908 30.768 141.752 31.284 141.44 31.74C141.14 32.184 140.69 32.538 140.09 32.802C139.502 33.054 138.776 33.18 137.912 33.18ZM147.006 33.18C146.406 33.18 145.866 33.072 145.386 32.856C144.906 32.64 144.522 32.298 144.234 31.83C143.958 31.35 143.82 30.732 143.82 29.976V24H146.286V29.382C146.286 30.078 146.43 30.564 146.718 30.84C147.006 31.104 147.42 31.236 147.96 31.236C148.212 31.236 148.458 31.194 148.698 31.11C148.938 31.014 149.148 30.87 149.328 30.678C149.52 30.486 149.67 30.24 149.778 29.94C149.886 29.628 149.94 29.262 149.94 28.842V24H152.406V33H150.21L150.12 31.434C149.82 32.034 149.406 32.478 148.878 32.766C148.362 33.042 147.738 33.18 147.006 33.18ZM157.431 20.058V30.228C157.431 30.648 157.503 30.942 157.647 31.11C157.791 31.278 158.031 31.362 158.367 31.362C158.571 31.362 158.739 31.35 158.871 31.326C159.003 31.29 159.171 31.242 159.375 31.182L159.159 32.802C158.955 32.922 158.697 33.012 158.385 33.072C158.085 33.144 157.785 33.18 157.485 33.18C156.609 33.18 155.967 32.97 155.559 32.55C155.163 32.118 154.965 31.434 154.965 30.498V20.058H157.431ZM163.619 21.246V30.066C163.619 30.498 163.727 30.816 163.943 31.02C164.171 31.212 164.477 31.308 164.861 31.308C165.161 31.308 165.425 31.266 165.653 31.182C165.881 31.086 166.085 30.96 166.265 30.804L166.661 32.442C166.373 32.67 166.013 32.85 165.581 32.982C165.149 33.114 164.693 33.18 164.213 33.18C163.613 33.18 163.079 33.09 162.611 32.91C162.155 32.73 161.795 32.442 161.531 32.046C161.279 31.65 161.153 31.122 161.153 30.462V21.93L163.619 21.246ZM166.499 24V25.836H159.497V24H166.499ZM173.385 27.258C173.385 26.742 173.235 26.34 172.935 26.052C172.647 25.764 172.263 25.62 171.783 25.62C171.339 25.62 170.949 25.734 170.613 25.962C170.277 26.19 170.031 26.568 169.875 27.096L167.769 26.448C167.973 25.656 168.417 25.02 169.101 24.54C169.797 24.06 170.727 23.82 171.891 23.82C172.683 23.82 173.373 23.946 173.961 24.198C174.549 24.438 175.005 24.804 175.329 25.296C175.665 25.788 175.833 26.406 175.833 27.15V30.804C175.833 31.26 176.049 31.488 176.481 31.488C176.685 31.488 176.877 31.458 177.057 31.398L176.913 32.928C176.601 33.084 176.211 33.162 175.743 33.162C175.323 33.162 174.945 33.09 174.609 32.946C174.273 32.802 174.009 32.586 173.817 32.298C173.625 31.998 173.529 31.626 173.529 31.182V31.11L173.961 31.038C173.889 31.494 173.691 31.884 173.367 32.208C173.043 32.52 172.647 32.76 172.179 32.928C171.723 33.096 171.249 33.18 170.757 33.18C170.145 33.18 169.617 33.09 169.173 32.91C168.729 32.718 168.387 32.442 168.147 32.082C167.907 31.722 167.787 31.278 167.787 30.75C167.787 30.078 168.003 29.532 168.435 29.112C168.867 28.68 169.485 28.386 170.289 28.23L173.673 27.546L173.655 29.076L171.495 29.508C171.087 29.592 170.775 29.706 170.559 29.85C170.355 29.982 170.253 30.204 170.253 30.516C170.253 30.816 170.361 31.044 170.577 31.2C170.805 31.356 171.075 31.434 171.387 31.434C171.639 31.434 171.885 31.404 172.125 31.344C172.365 31.284 172.581 31.188 172.773 31.056C172.965 30.924 173.115 30.744 173.223 30.516C173.331 30.288 173.385 30.012 173.385 29.688V27.258ZM181.425 21.246V30.066C181.425 30.498 181.533 30.816 181.749 31.02C181.977 31.212 182.283 31.308 182.667 31.308C182.967 31.308 183.231 31.266 183.459 31.182C183.687 31.086 183.891 30.96 184.071 30.804L184.467 32.442C184.179 32.67 183.819 32.85 183.387 32.982C182.955 33.114 182.499 33.18 182.019 33.18C181.419 33.18 180.885 33.09 180.417 32.91C179.961 32.73 179.601 32.442 179.337 32.046C179.085 31.65 178.959 31.122 178.959 30.462V21.93L181.425 21.246ZM184.305 24V25.836H177.303V24H184.305ZM187.216 22.704C186.7 22.704 186.316 22.596 186.064 22.38C185.812 22.152 185.686 21.822 185.686 21.39C185.686 20.946 185.812 20.616 186.064 20.4C186.316 20.172 186.7 20.058 187.216 20.058C187.732 20.058 188.116 20.172 188.368 20.4C188.62 20.616 188.746 20.946 188.746 21.39C188.746 21.822 188.62 22.152 188.368 22.38C188.116 22.596 187.732 22.704 187.216 22.704ZM188.44 24V33H185.974V24H188.44ZM195.158 23.82C196.07 23.82 196.868 24.006 197.552 24.378C198.248 24.75 198.788 25.284 199.172 25.98C199.568 26.676 199.766 27.516 199.766 28.5C199.766 29.472 199.568 30.312 199.172 31.02C198.788 31.716 198.248 32.25 197.552 32.622C196.868 32.994 196.07 33.18 195.158 33.18C194.258 33.18 193.46 32.994 192.764 32.622C192.068 32.25 191.522 31.716 191.126 31.02C190.742 30.312 190.55 29.472 190.55 28.5C190.55 27.516 190.742 26.676 191.126 25.98C191.522 25.284 192.068 24.75 192.764 24.378C193.46 24.006 194.258 23.82 195.158 23.82ZM195.158 25.656C194.702 25.656 194.312 25.764 193.988 25.98C193.676 26.184 193.436 26.496 193.268 26.916C193.1 27.336 193.016 27.864 193.016 28.5C193.016 29.136 193.1 29.664 193.268 30.084C193.436 30.504 193.676 30.822 193.988 31.038C194.312 31.242 194.702 31.344 195.158 31.344C195.602 31.344 195.98 31.242 196.292 31.038C196.616 30.822 196.862 30.504 197.03 30.084C197.198 29.664 197.282 29.136 197.282 28.5C197.282 27.864 197.198 27.336 197.03 26.916C196.862 26.496 196.616 26.184 196.292 25.98C195.98 25.764 195.602 25.656 195.158 25.656ZM201.829 33V24H204.043L204.187 26.7L203.881 26.412C204.025 25.824 204.253 25.338 204.565 24.954C204.877 24.57 205.255 24.288 205.699 24.108C206.155 23.916 206.653 23.82 207.193 23.82C207.817 23.82 208.369 23.94 208.849 24.18C209.341 24.42 209.725 24.786 210.001 25.278C210.289 25.758 210.433 26.364 210.433 27.096V33H207.967V27.798C207.967 27.03 207.817 26.502 207.517 26.214C207.217 25.914 206.827 25.764 206.347 25.764C206.011 25.764 205.681 25.848 205.357 26.016C205.045 26.172 204.787 26.43 204.583 26.79C204.391 27.15 204.295 27.63 204.295 28.23V33H201.829Z" fill="white"/>
<rect x="1" y="1" width="230" height="51" rx="1" stroke="white" stroke-width="2"/>
</svg>
