<svg width="176" height="53" viewBox="0 0 176 53" fill="none" xmlns="http://www.w3.org/2000/svg">
<rect width="176" height="53" rx="2" fill="#2947A9"/>
<path d="M50.7629 29.724C50.5349 30.492 50.1749 31.134 49.6829 31.65C49.1909 32.166 48.6089 32.55 47.9369 32.802C47.2649 33.054 46.5269 33.18 45.7229 33.18C44.5469 33.18 43.5269 32.934 42.6629 32.442C41.8109 31.95 41.1509 31.248 40.6829 30.336C40.2269 29.424 39.9989 28.332 39.9989 27.06C39.9989 25.788 40.2269 24.696 40.6829 23.784C41.1509 22.872 41.8109 22.17 42.6629 21.678C43.5269 21.186 44.5349 20.94 45.6869 20.94C46.5029 20.94 47.2409 21.054 47.9009 21.282C48.5609 21.498 49.1189 21.834 49.5749 22.29C50.0429 22.746 50.3849 23.322 50.6009 24.018L48.3509 24.972C48.1469 24.252 47.8349 23.742 47.4149 23.442C46.9949 23.13 46.4549 22.974 45.7949 22.974C45.1469 22.974 44.5769 23.13 44.0849 23.442C43.6049 23.754 43.2329 24.216 42.9689 24.828C42.7049 25.428 42.5729 26.172 42.5729 27.06C42.5729 27.936 42.6929 28.68 42.9329 29.292C43.1849 29.904 43.5509 30.366 44.0309 30.678C44.5109 30.99 45.0989 31.146 45.7949 31.146C46.4429 31.146 47.0009 30.972 47.4689 30.624C47.9489 30.276 48.2849 29.748 48.4769 29.04L50.7629 29.724ZM56.732 23.82C57.644 23.82 58.442 24.006 59.126 24.378C59.822 24.75 60.362 25.284 60.746 25.98C61.142 26.676 61.34 27.516 61.34 28.5C61.34 29.472 61.142 30.312 60.746 31.02C60.362 31.716 59.822 32.25 59.126 32.622C58.442 32.994 57.644 33.18 56.732 33.18C55.832 33.18 55.034 32.994 54.338 32.622C53.642 32.25 53.096 31.716 52.7 31.02C52.316 30.312 52.124 29.472 52.124 28.5C52.124 27.516 52.316 26.676 52.7 25.98C53.096 25.284 53.642 24.75 54.338 24.378C55.034 24.006 55.832 23.82 56.732 23.82ZM56.732 25.656C56.276 25.656 55.886 25.764 55.562 25.98C55.25 26.184 55.01 26.496 54.842 26.916C54.674 27.336 54.59 27.864 54.59 28.5C54.59 29.136 54.674 29.664 54.842 30.084C55.01 30.504 55.25 30.822 55.562 31.038C55.886 31.242 56.276 31.344 56.732 31.344C57.176 31.344 57.554 31.242 57.866 31.038C58.19 30.822 58.436 30.504 58.604 30.084C58.772 29.664 58.856 29.136 58.856 28.5C58.856 27.864 58.772 27.336 58.604 26.916C58.436 26.496 58.19 26.184 57.866 25.98C57.554 25.764 57.176 25.656 56.732 25.656ZM63.4034 33V24H65.6174L65.7614 26.7L65.4554 26.412C65.5994 25.824 65.8274 25.338 66.1394 24.954C66.4514 24.57 66.8294 24.288 67.2734 24.108C67.7294 23.916 68.2274 23.82 68.7674 23.82C69.3914 23.82 69.9434 23.94 70.4234 24.18C70.9154 24.42 71.2994 24.786 71.5754 25.278C71.8634 25.758 72.0074 26.364 72.0074 27.096V33H69.5414V27.798C69.5414 27.03 69.3914 26.502 69.0914 26.214C68.7914 25.914 68.4014 25.764 67.9214 25.764C67.5854 25.764 67.2554 25.848 66.9314 26.016C66.6194 26.172 66.3614 26.43 66.1574 26.79C65.9654 27.15 65.8694 27.63 65.8694 28.23V33H63.4034ZM77.6636 21.246V30.066C77.6636 30.498 77.7716 30.816 77.9876 31.02C78.2156 31.212 78.5216 31.308 78.9056 31.308C79.2056 31.308 79.4696 31.266 79.6976 31.182C79.9256 31.086 80.1296 30.96 80.3096 30.804L80.7056 32.442C80.4176 32.67 80.0576 32.85 79.6256 32.982C79.1936 33.114 78.7376 33.18 78.2576 33.18C77.6576 33.18 77.1236 33.09 76.6556 32.91C76.1996 32.73 75.8396 32.442 75.5756 32.046C75.3236 31.65 75.1976 31.122 75.1976 30.462V21.93L77.6636 21.246ZM80.5436 24V25.836H73.5416V24H80.5436ZM87.4299 27.258C87.4299 26.742 87.2799 26.34 86.9799 26.052C86.6919 25.764 86.3079 25.62 85.8279 25.62C85.3839 25.62 84.9939 25.734 84.6579 25.962C84.3219 26.19 84.0759 26.568 83.9199 27.096L81.8139 26.448C82.0179 25.656 82.4619 25.02 83.1459 24.54C83.8419 24.06 84.7719 23.82 85.9359 23.82C86.7279 23.82 87.4179 23.946 88.0059 24.198C88.5939 24.438 89.0499 24.804 89.3739 25.296C89.7099 25.788 89.8779 26.406 89.8779 27.15V30.804C89.8779 31.26 90.0939 31.488 90.5259 31.488C90.7299 31.488 90.9219 31.458 91.1019 31.398L90.9579 32.928C90.6459 33.084 90.2559 33.162 89.7879 33.162C89.3679 33.162 88.9899 33.09 88.6539 32.946C88.3179 32.802 88.0539 32.586 87.8619 32.298C87.6699 31.998 87.5739 31.626 87.5739 31.182V31.11L88.0059 31.038C87.9339 31.494 87.7359 31.884 87.4119 32.208C87.0879 32.52 86.6919 32.76 86.2239 32.928C85.7679 33.096 85.2939 33.18 84.8019 33.18C84.1899 33.18 83.6619 33.09 83.2179 32.91C82.7739 32.718 82.4319 32.442 82.1919 32.082C81.9519 31.722 81.8319 31.278 81.8319 30.75C81.8319 30.078 82.0479 29.532 82.4799 29.112C82.9119 28.68 83.5299 28.386 84.3339 28.23L87.7179 27.546L87.6999 29.076L85.5399 29.508C85.1319 29.592 84.8199 29.706 84.6039 29.85C84.3999 29.982 84.2979 30.204 84.2979 30.516C84.2979 30.816 84.4059 31.044 84.6219 31.2C84.8499 31.356 85.1199 31.434 85.4319 31.434C85.6839 31.434 85.9299 31.404 86.1699 31.344C86.4099 31.284 86.6259 31.188 86.8179 31.056C87.0099 30.924 87.1599 30.744 87.2679 30.516C87.3759 30.288 87.4299 30.012 87.4299 29.688V27.258ZM96.6867 23.82C97.4907 23.82 98.1687 23.94 98.7207 24.18C99.2847 24.408 99.7347 24.726 100.071 25.134C100.419 25.53 100.665 25.974 100.809 26.466L98.5047 27.294C98.3847 26.754 98.1807 26.346 97.8927 26.07C97.6047 25.794 97.2147 25.656 96.7227 25.656C96.2667 25.656 95.8767 25.764 95.5527 25.98C95.2287 26.184 94.9827 26.502 94.8147 26.934C94.6467 27.354 94.5627 27.882 94.5627 28.518C94.5627 29.154 94.6467 29.682 94.8147 30.102C94.9947 30.522 95.2467 30.834 95.5707 31.038C95.9067 31.242 96.2967 31.344 96.7407 31.344C97.1007 31.344 97.4067 31.284 97.6587 31.164C97.9107 31.032 98.1147 30.846 98.2707 30.606C98.4387 30.366 98.5527 30.078 98.6127 29.742L100.845 30.462C100.713 31.002 100.467 31.476 100.107 31.884C99.7467 32.292 99.2847 32.61 98.7207 32.838C98.1567 33.066 97.5027 33.18 96.7587 33.18C95.8347 33.18 95.0187 32.994 94.3107 32.622C93.6027 32.25 93.0567 31.716 92.6727 31.02C92.2887 30.324 92.0967 29.484 92.0967 28.5C92.0967 27.516 92.2887 26.676 92.6727 25.98C93.0567 25.284 93.5967 24.75 94.2927 24.378C94.9887 24.006 95.7867 23.82 96.6867 23.82ZM105.947 21.246V30.066C105.947 30.498 106.055 30.816 106.271 31.02C106.499 31.212 106.805 31.308 107.189 31.308C107.489 31.308 107.753 31.266 107.981 31.182C108.209 31.086 108.413 30.96 108.593 30.804L108.989 32.442C108.701 32.67 108.341 32.85 107.909 32.982C107.477 33.114 107.021 33.18 106.541 33.18C105.941 33.18 105.407 33.09 104.939 32.91C104.483 32.73 104.123 32.442 103.859 32.046C103.607 31.65 103.481 31.122 103.481 30.462V21.93L105.947 21.246ZM108.827 24V25.836H101.825V24H108.827ZM126.167 21.12V28.32C126.167 29.94 125.735 31.158 124.871 31.974C124.007 32.778 122.747 33.18 121.091 33.18C119.435 33.18 118.175 32.778 117.311 31.974C116.447 31.158 116.015 29.94 116.015 28.32V21.12H118.499V28.212C118.499 29.208 118.709 29.946 119.129 30.426C119.561 30.906 120.215 31.146 121.091 31.146C121.967 31.146 122.615 30.906 123.035 30.426C123.455 29.946 123.665 29.208 123.665 28.212V21.12H126.167ZM132.289 33.18C131.377 33.18 130.543 33.018 129.787 32.694C129.043 32.37 128.437 31.914 127.969 31.326L129.391 29.886C129.679 30.318 130.063 30.672 130.543 30.948C131.023 31.224 131.593 31.362 132.253 31.362C132.721 31.362 133.093 31.296 133.369 31.164C133.657 31.02 133.801 30.798 133.801 30.498C133.801 30.306 133.735 30.144 133.603 30.012C133.471 29.868 133.207 29.754 132.811 29.67L131.227 29.346C130.183 29.13 129.439 28.806 128.995 28.374C128.563 27.93 128.347 27.36 128.347 26.664C128.347 26.172 128.491 25.71 128.779 25.278C129.079 24.846 129.523 24.498 130.111 24.234C130.699 23.958 131.431 23.82 132.307 23.82C133.207 23.82 133.987 23.964 134.647 24.252C135.319 24.528 135.847 24.942 136.231 25.494L134.755 26.934C134.491 26.514 134.143 26.196 133.711 25.98C133.291 25.752 132.847 25.638 132.379 25.638C132.043 25.638 131.755 25.674 131.515 25.746C131.275 25.818 131.095 25.92 130.975 26.052C130.855 26.172 130.795 26.328 130.795 26.52C130.795 26.712 130.879 26.88 131.047 27.024C131.215 27.156 131.521 27.27 131.965 27.366L133.801 27.744C134.689 27.924 135.325 28.23 135.709 28.662C136.093 29.082 136.285 29.592 136.285 30.192C136.285 30.768 136.129 31.284 135.817 31.74C135.517 32.184 135.067 32.538 134.467 32.802C133.879 33.054 133.153 33.18 132.289 33.18Z" fill="white"/>
</svg>
