<svg width="273" height="28" viewBox="0 0 273 28" fill="none" xmlns="http://www.w3.org/2000/svg">
<rect x="16" width="7" height="28" fill="#F9995D"/>
<path d="M50.024 6.16V22H48.104V6.16H50.024ZM39.512 6.16V22H37.592V6.16H39.512ZM48.992 13.072V14.872H38.6V13.072H48.992ZM61.7244 14.248C61.7244 13.352 61.4844 12.664 61.0044 12.184C60.5244 11.688 59.8444 11.44 58.9644 11.44C58.1324 11.44 57.4284 11.624 56.8524 11.992C56.2764 12.344 55.8524 12.92 55.5804 13.72L54.0204 12.76C54.3404 11.864 54.9324 11.144 55.7964 10.6C56.6604 10.04 57.7324 9.76 59.0124 9.76C59.8764 9.76 60.6604 9.912 61.3644 10.216C62.0684 10.504 62.6204 10.952 63.0204 11.56C63.4364 12.152 63.6444 12.92 63.6444 13.864V19.672C63.6444 20.248 63.9484 20.536 64.5564 20.536C64.8604 20.536 65.1564 20.496 65.4444 20.416L65.3484 21.928C65.0284 22.088 64.6124 22.168 64.1004 22.168C63.6364 22.168 63.2204 22.08 62.8524 21.904C62.4844 21.728 62.1964 21.464 61.9884 21.112C61.7804 20.744 61.6764 20.288 61.6764 19.744V19.504L62.1564 19.576C61.9644 20.2 61.6364 20.712 61.1724 21.112C60.7084 21.496 60.1884 21.784 59.6124 21.976C59.0364 22.152 58.4684 22.24 57.9084 22.24C57.2044 22.24 56.5484 22.12 55.9404 21.88C55.3324 21.64 54.8444 21.28 54.4764 20.8C54.1244 20.304 53.9484 19.696 53.9484 18.976C53.9484 18.08 54.2444 17.344 54.8364 16.768C55.4444 16.176 56.2844 15.776 57.3564 15.568L62.1084 14.632V16.216L58.2444 17.008C57.4604 17.168 56.8764 17.392 56.4924 17.68C56.1084 17.968 55.9164 18.368 55.9164 18.88C55.9164 19.376 56.1084 19.784 56.4924 20.104C56.8924 20.408 57.4524 20.56 58.1724 20.56C58.6364 20.56 59.0764 20.504 59.4924 20.392C59.9244 20.264 60.3084 20.08 60.6444 19.84C60.9804 19.584 61.2444 19.272 61.4364 18.904C61.6284 18.52 61.7244 18.072 61.7244 17.56V14.248ZM68.3101 27.04V10H69.9901L70.1581 12.928L69.8941 12.592C70.1021 12.032 70.4141 11.544 70.8301 11.128C71.2461 10.696 71.7501 10.36 72.3421 10.12C72.9341 9.88 73.5741 9.76 74.2621 9.76C75.2381 9.76 76.1341 10.008 76.9501 10.504C77.7821 11 78.4461 11.712 78.9421 12.64C79.4381 13.568 79.6861 14.688 79.6861 16C79.6861 17.296 79.4301 18.416 78.9181 19.36C78.4221 20.288 77.7581 21 76.9261 21.496C76.0941 21.992 75.1821 22.24 74.1901 22.24C73.1981 22.24 72.3261 22 71.5741 21.52C70.8381 21.024 70.3101 20.4 69.9901 19.648L70.2301 19.288V27.04H68.3101ZM73.9981 20.56C75.1821 20.56 76.1021 20.144 76.7581 19.312C77.4301 18.48 77.7661 17.376 77.7661 16C77.7661 14.624 77.4381 13.52 76.7821 12.688C76.1421 11.856 75.2381 11.44 74.0701 11.44C73.3021 11.44 72.6301 11.632 72.0541 12.016C71.4781 12.384 71.0301 12.912 70.7101 13.6C70.3901 14.272 70.2301 15.072 70.2301 16C70.2301 16.912 70.3821 17.712 70.6861 18.4C71.0061 19.088 71.4461 19.624 72.0061 20.008C72.5821 20.376 73.2461 20.56 73.9981 20.56ZM83.357 27.04V10H85.037L85.205 12.928L84.941 12.592C85.149 12.032 85.461 11.544 85.877 11.128C86.293 10.696 86.797 10.36 87.389 10.12C87.981 9.88 88.621 9.76 89.309 9.76C90.285 9.76 91.181 10.008 91.997 10.504C92.829 11 93.493 11.712 93.989 12.64C94.485 13.568 94.733 14.688 94.733 16C94.733 17.296 94.477 18.416 93.965 19.36C93.469 20.288 92.805 21 91.973 21.496C91.141 21.992 90.229 22.24 89.237 22.24C88.245 22.24 87.373 22 86.621 21.52C85.885 21.024 85.357 20.4 85.037 19.648L85.277 19.288V27.04H83.357ZM89.045 20.56C90.229 20.56 91.149 20.144 91.805 19.312C92.477 18.48 92.813 17.376 92.813 16C92.813 14.624 92.485 13.52 91.829 12.688C91.189 11.856 90.285 11.44 89.117 11.44C88.349 11.44 87.677 11.632 87.101 12.016C86.525 12.384 86.077 12.912 85.757 13.6C85.437 14.272 85.277 15.072 85.277 16C85.277 16.912 85.429 17.712 85.733 18.4C86.053 19.088 86.493 19.624 87.053 20.008C87.629 20.376 88.293 20.56 89.045 20.56ZM107.916 10L102.276 24.016C101.972 24.8 101.636 25.416 101.268 25.864C100.916 26.328 100.516 26.656 100.068 26.848C99.6363 27.056 99.1323 27.16 98.5563 27.16C98.0123 27.16 97.5083 27.08 97.0443 26.92C96.5963 26.776 96.1963 26.576 95.8443 26.32L96.3723 24.64C96.6923 24.928 97.0283 25.136 97.3803 25.264C97.7483 25.408 98.1083 25.48 98.4603 25.48C98.8763 25.48 99.2683 25.352 99.6363 25.096C100.004 24.84 100.34 24.32 100.644 23.536L101.268 21.976L100.068 19.12L96.2523 10H98.4363L101.436 17.824L102.18 19.96L103.044 17.584L105.852 10H107.916ZM131.126 17.944C130.79 18.84 130.31 19.616 129.686 20.272C129.062 20.912 128.326 21.4 127.478 21.736C126.646 22.072 125.734 22.24 124.742 22.24C123.238 22.24 121.934 21.912 120.83 21.256C119.742 20.584 118.894 19.64 118.286 18.424C117.694 17.208 117.398 15.76 117.398 14.08C117.398 12.4 117.694 10.952 118.286 9.736C118.894 8.52 119.742 7.584 120.83 6.928C121.934 6.256 123.222 5.92 124.694 5.92C125.718 5.92 126.63 6.064 127.43 6.352C128.23 6.624 128.91 7.04 129.47 7.6C130.046 8.144 130.502 8.816 130.838 9.616L128.942 10.504C128.59 9.592 128.078 8.904 127.406 8.44C126.75 7.96 125.894 7.72 124.838 7.72C123.766 7.72 122.822 7.976 122.006 8.488C121.19 8.984 120.55 9.704 120.086 10.648C119.638 11.592 119.414 12.736 119.414 14.08C119.414 15.408 119.63 16.552 120.062 17.512C120.494 18.456 121.11 19.184 121.91 19.696C122.71 20.192 123.654 20.44 124.742 20.44C125.798 20.44 126.718 20.176 127.502 19.648C128.286 19.104 128.854 18.296 129.206 17.224L131.126 17.944ZM136.275 4.48V18.952C136.275 19.56 136.387 19.984 136.611 20.224C136.835 20.448 137.195 20.56 137.691 20.56C138.011 20.56 138.275 20.536 138.483 20.488C138.691 20.44 138.971 20.352 139.323 20.224L139.011 21.904C138.755 22.016 138.475 22.096 138.171 22.144C137.867 22.208 137.555 22.24 137.235 22.24C136.259 22.24 135.531 21.976 135.051 21.448C134.587 20.92 134.355 20.112 134.355 19.024V4.48H136.275ZM142.747 7.696C142.315 7.696 141.963 7.568 141.691 7.312C141.435 7.04 141.307 6.688 141.307 6.256C141.307 5.824 141.435 5.48 141.691 5.224C141.963 4.952 142.315 4.816 142.747 4.816C143.179 4.816 143.523 4.952 143.779 5.224C144.051 5.48 144.187 5.824 144.187 6.256C144.187 6.688 144.051 7.04 143.779 7.312C143.523 7.568 143.179 7.696 142.747 7.696ZM143.707 10V22H141.787V10H143.707ZM153.178 22.24C152.042 22.24 151.026 21.992 150.13 21.496C149.25 21 148.562 20.288 148.066 19.36C147.57 18.416 147.322 17.296 147.322 16C147.322 14.704 147.57 13.592 148.066 12.664C148.562 11.72 149.242 11 150.106 10.504C150.97 10.008 151.954 9.76 153.058 9.76C154.178 9.76 155.13 10 155.914 10.48C156.714 10.96 157.322 11.616 157.738 12.448C158.154 13.264 158.362 14.184 158.362 15.208C158.362 15.48 158.354 15.728 158.338 15.952C158.322 16.176 158.298 16.376 158.266 16.552H148.57V14.848H157.426L156.442 15.04C156.442 13.888 156.122 13 155.482 12.376C154.858 11.752 154.034 11.44 153.01 11.44C152.226 11.44 151.546 11.624 150.97 11.992C150.41 12.344 149.97 12.864 149.65 13.552C149.346 14.224 149.194 15.04 149.194 16C149.194 16.944 149.354 17.76 149.674 18.448C149.994 19.136 150.442 19.664 151.018 20.032C151.61 20.384 152.314 20.56 153.13 20.56C154.01 20.56 154.722 20.392 155.266 20.056C155.826 19.72 156.274 19.264 156.61 18.688L158.122 19.576C157.818 20.12 157.426 20.592 156.946 20.992C156.482 21.392 155.93 21.704 155.29 21.928C154.666 22.136 153.962 22.24 153.178 22.24ZM162.013 22V10H163.693L163.861 12.688L163.549 12.424C163.805 11.784 164.149 11.272 164.581 10.888C165.013 10.488 165.509 10.2 166.069 10.024C166.645 9.848 167.237 9.76 167.845 9.76C168.709 9.76 169.493 9.928 170.197 10.264C170.901 10.584 171.461 11.08 171.877 11.752C172.309 12.424 172.525 13.28 172.525 14.32V22H170.605V14.992C170.605 13.664 170.317 12.744 169.741 12.232C169.181 11.704 168.485 11.44 167.653 11.44C167.077 11.44 166.501 11.576 165.925 11.848C165.349 12.12 164.869 12.56 164.485 13.168C164.117 13.776 163.933 14.592 163.933 15.616V22H162.013ZM179.541 6.592V18.688C179.541 19.28 179.709 19.72 180.045 20.008C180.381 20.296 180.813 20.44 181.341 20.44C181.805 20.44 182.205 20.36 182.541 20.2C182.877 20.04 183.181 19.824 183.453 19.552L184.125 21.16C183.757 21.496 183.317 21.76 182.805 21.952C182.309 22.144 181.733 22.24 181.077 22.24C180.469 22.24 179.901 22.136 179.373 21.928C178.845 21.704 178.421 21.36 178.101 20.896C177.797 20.416 177.637 19.792 177.621 19.024V7.12L179.541 6.592ZM183.909 10V11.656H175.221V10H183.909ZM191.083 22.24C189.915 22.24 188.835 21.992 187.843 21.496C186.867 21 186.115 20.296 185.587 19.384L187.219 18.208C187.571 18.944 188.083 19.52 188.755 19.936C189.443 20.352 190.267 20.56 191.227 20.56C192.075 20.56 192.739 20.4 193.219 20.08C193.699 19.744 193.939 19.312 193.939 18.784C193.939 18.448 193.827 18.144 193.603 17.872C193.395 17.584 192.987 17.376 192.379 17.248L189.499 16.648C188.331 16.408 187.491 16.008 186.979 15.448C186.483 14.888 186.235 14.192 186.235 13.36C186.235 12.704 186.419 12.104 186.787 11.56C187.171 11.016 187.707 10.584 188.395 10.264C189.099 9.928 189.923 9.76 190.867 9.76C192.051 9.76 193.051 9.992 193.867 10.456C194.683 10.92 195.291 11.576 195.691 12.424L194.083 13.48C193.811 12.776 193.371 12.264 192.763 11.944C192.155 11.608 191.523 11.44 190.867 11.44C190.291 11.44 189.795 11.52 189.379 11.68C188.979 11.84 188.667 12.064 188.443 12.352C188.235 12.624 188.131 12.936 188.131 13.288C188.131 13.64 188.251 13.968 188.491 14.272C188.731 14.56 189.179 14.768 189.835 14.896L192.835 15.52C193.955 15.744 194.739 16.112 195.187 16.624C195.635 17.136 195.859 17.76 195.859 18.496C195.859 19.248 195.659 19.912 195.259 20.488C194.859 21.048 194.299 21.48 193.579 21.784C192.859 22.088 192.027 22.24 191.083 22.24Z" fill="#667299"/>
</svg>
