<svg width="207" height="40" viewBox="0 0 207 40" fill="none" xmlns="http://www.w3.org/2000/svg">
<rect width="207" height="40" transform="translate(207 40) rotate(-180)" fill="#292E3D"/>
<path fill-rule="evenodd" clip-rule="evenodd" d="M116 20C116 20.2504 116.098 20.4906 116.272 20.6677C116.446 20.8448 116.682 20.9443 116.929 20.9443L138.828 20.9443L132.984 26.8859C132.898 26.9737 132.83 27.078 132.783 27.1927C132.736 27.3074 132.712 27.4303 132.712 27.5545C132.712 27.6787 132.736 27.8016 132.783 27.9163C132.83 28.031 132.898 28.1353 132.984 28.2231C133.071 28.3109 133.173 28.3805 133.286 28.428C133.399 28.4755 133.52 28.5 133.642 28.5C133.764 28.5 133.885 28.4755 133.998 28.428C134.11 28.3805 134.213 28.3109 134.299 28.2231L141.727 20.6686C141.814 20.5809 141.882 20.4766 141.929 20.3619C141.976 20.2472 142 20.1242 142 20C142 19.8758 141.976 19.7528 141.929 19.6381C141.882 19.5234 141.814 19.4191 141.727 19.3314L134.299 11.7769C134.213 11.6891 134.11 11.6195 133.998 11.572C133.885 11.5245 133.764 11.5 133.642 11.5C133.52 11.5 133.399 11.5245 133.286 11.572C133.173 11.6195 133.071 11.6891 132.984 11.7769C132.898 11.8647 132.83 11.969 132.783 12.0837C132.736 12.1984 132.712 12.3213 132.712 12.4455C132.712 12.5697 132.736 12.6926 132.783 12.8073C132.83 12.922 132.898 13.0263 132.984 13.1141L138.828 19.0557L116.929 19.0557C116.682 19.0557 116.446 19.1552 116.272 19.3323C116.098 19.5094 116 19.7496 116 20Z" fill="white"/>
<path d="M76.6323 14.62L76.6323 26.5L74.8503 26.5L69.8823 18.544L68.6223 16.312L68.6043 16.312L68.6763 18.112L68.6763 26.5L67.3083 26.5L67.3083 14.62L69.0903 14.62L74.0403 22.54L75.3183 24.826L75.3363 24.826L75.2643 23.008L75.2643 14.62L76.6323 14.62ZM83.8784 26.68C83.0264 26.68 82.2644 26.494 81.5924 26.122C80.9324 25.75 80.4164 25.216 80.0444 24.52C79.6724 23.812 79.4864 22.972 79.4864 22C79.4864 21.028 79.6724 20.194 80.0444 19.498C80.4164 18.79 80.9264 18.25 81.5744 17.878C82.2224 17.506 82.9604 17.32 83.7884 17.32C84.6284 17.32 85.3424 17.5 85.9304 17.86C86.5304 18.22 86.9864 18.712 87.2984 19.336C87.6104 19.948 87.7664 20.638 87.7664 21.406C87.7664 21.61 87.7604 21.796 87.7484 21.964C87.7364 22.132 87.7184 22.282 87.6944 22.414L80.4224 22.414L80.4224 21.136L87.0644 21.136L86.3264 21.28C86.3264 20.416 86.0864 19.75 85.6064 19.282C85.1384 18.814 84.5204 18.58 83.7524 18.58C83.1644 18.58 82.6544 18.718 82.2224 18.994C81.8024 19.258 81.4724 19.648 81.2324 20.164C81.0044 20.668 80.8904 21.28 80.8904 22C80.8904 22.708 81.0104 23.32 81.2504 23.836C81.4904 24.352 81.8264 24.748 82.2584 25.024C82.7024 25.288 83.2304 25.42 83.8424 25.42C84.5024 25.42 85.0364 25.294 85.4444 25.042C85.8644 24.79 86.2004 24.448 86.4524 24.016L87.5864 24.682C87.3584 25.09 87.0644 25.444 86.7044 25.744C86.3564 26.044 85.9424 26.278 85.4624 26.446C84.9944 26.602 84.4664 26.68 83.8784 26.68ZM91.0351 17.5L93.7171 21.262L93.8071 21.388L97.4971 26.5L95.7331 26.5L92.9431 22.594L92.7811 22.396L89.2351 17.5L91.0351 17.5ZM97.4431 17.5L93.8791 22.306L93.7891 22.306L90.6931 26.5L89.0191 26.5L92.9431 21.334L93.0511 21.334L95.7511 17.5L97.4431 17.5ZM101.893 14.944L101.893 24.016C101.893 24.46 102.019 24.79 102.271 25.006C102.523 25.222 102.847 25.33 103.243 25.33C103.591 25.33 103.891 25.27 104.143 25.15C104.395 25.03 104.623 24.868 104.827 24.664L105.331 25.87C105.055 26.122 104.725 26.32 104.341 26.464C103.969 26.608 103.537 26.68 103.045 26.68C102.589 26.68 102.163 26.602 101.767 26.446C101.371 26.278 101.053 26.02 100.813 25.672C100.585 25.312 100.465 24.844 100.453 24.268L100.453 15.34L101.893 14.944ZM105.169 17.5L105.169 18.742L98.6527 18.742L98.6527 17.5L105.169 17.5Z" fill="white"/>
</svg>
