<svg width="40" height="40" viewBox="0 0 40 40" fill="none" xmlns="http://www.w3.org/2000/svg">
<path d="M36.3167 28.4331L27.0667 19.1831L29.6833 16.5664L23.4333 10.3164L20.8167 12.9331L11.5667 3.68311L3.68332 11.5664L12.9333 20.8164L4.99999 28.7498V34.9998H11.25L19.1833 27.0664L28.4333 36.3164L36.3167 28.4331ZM15.3 18.4498L8.39999 11.5664L11.5667 8.39977L13.6833 10.5164L11.7 12.4998L14.05 14.8498L16.0333 12.8664L18.45 15.2831L15.3 18.4498ZM21.55 24.6998L24.7167 21.5331L27.1333 23.9498L25.15 25.9331L27.5 28.2831L29.4833 26.2998L31.6 28.4164L28.4333 31.5831L21.55 24.6998ZM25.2217 8.53811L29.4517 4.30644L35.6983 10.5531L31.4683 14.7848L25.2217 8.53811Z" fill="#F9995D"/>
</svg>
