<svg width="273" height="28" viewBox="0 0 273 28" fill="none" xmlns="http://www.w3.org/2000/svg">
<rect x="16" width="7" height="28" fill="#F9995D"/>
<path d="M43.184 6.16C44.256 6.16 45.184 6.36 45.968 6.76C46.768 7.144 47.392 7.696 47.84 8.416C48.288 9.136 48.512 9.992 48.512 10.984C48.512 11.976 48.288 12.832 47.84 13.552C47.392 14.272 46.768 14.832 45.968 15.232C45.184 15.616 44.256 15.808 43.184 15.808H39.512V22H37.592V6.16H43.184ZM42.896 14.008C44.144 14.008 45.056 13.752 45.632 13.24C46.208 12.712 46.496 11.96 46.496 10.984C46.496 9.992 46.208 9.24 45.632 8.728C45.056 8.216 44.144 7.96 42.896 7.96H39.512V14.008H42.896ZM51.8804 22V10H53.4404L53.7044 11.968C54.0404 11.232 54.5284 10.68 55.1684 10.312C55.8244 9.944 56.6164 9.76 57.5444 9.76C57.7524 9.76 57.9764 9.776 58.2164 9.808C58.4724 9.84 58.6884 9.904 58.8644 10L58.5284 11.752C58.3524 11.688 58.1604 11.64 57.9524 11.608C57.7444 11.576 57.4484 11.56 57.0644 11.56C56.5684 11.56 56.0644 11.704 55.5524 11.992C55.0564 12.28 54.6404 12.72 54.3044 13.312C53.9684 13.888 53.8004 14.624 53.8004 15.52V22H51.8804ZM66.2703 9.76C67.4063 9.76 68.4063 10.008 69.2703 10.504C70.1503 11 70.8383 11.72 71.3343 12.664C71.8303 13.592 72.0783 14.704 72.0783 16C72.0783 17.296 71.8303 18.416 71.3343 19.36C70.8383 20.288 70.1503 21 69.2703 21.496C68.4063 21.992 67.4063 22.24 66.2703 22.24C65.1503 22.24 64.1503 21.992 63.2703 21.496C62.3903 21 61.7023 20.288 61.2063 19.36C60.7103 18.416 60.4623 17.296 60.4623 16C60.4623 14.704 60.7103 13.592 61.2063 12.664C61.7023 11.72 62.3903 11 63.2703 10.504C64.1503 10.008 65.1503 9.76 66.2703 9.76ZM66.2703 11.416C65.4543 11.416 64.7583 11.6 64.1823 11.968C63.6063 12.336 63.1583 12.864 62.8383 13.552C62.5343 14.224 62.3823 15.04 62.3823 16C62.3823 16.944 62.5343 17.76 62.8383 18.448C63.1583 19.136 63.6063 19.664 64.1823 20.032C64.7583 20.4 65.4543 20.584 66.2703 20.584C67.0863 20.584 67.7823 20.4 68.3583 20.032C68.9343 19.664 69.3743 19.136 69.6783 18.448C69.9983 17.76 70.1583 16.944 70.1583 16C70.1583 15.04 69.9983 14.224 69.6783 13.552C69.3743 12.864 68.9343 12.336 68.3583 11.968C67.7823 11.6 67.0863 11.416 66.2703 11.416ZM76.6529 7.696C76.2209 7.696 75.8689 7.568 75.5969 7.312C75.3409 7.04 75.2129 6.688 75.2129 6.256C75.2129 5.824 75.3409 5.48 75.5969 5.224C75.8689 4.952 76.2209 4.816 76.6529 4.816C77.0849 4.816 77.4289 4.952 77.6849 5.224C77.9569 5.48 78.0929 5.824 78.0929 6.256C78.0929 6.688 77.9569 7.04 77.6849 7.312C77.4289 7.568 77.0849 7.696 76.6529 7.696ZM77.6129 10V23.224C77.6129 24.216 77.4209 25 77.0369 25.576C76.6529 26.152 76.1809 26.56 75.6209 26.8C75.0609 27.04 74.5089 27.16 73.9649 27.16C73.4689 27.16 73.0129 27.08 72.5969 26.92C72.1809 26.776 71.8369 26.592 71.5649 26.368L71.9729 24.544C72.1969 24.752 72.4769 24.928 72.8129 25.072C73.1489 25.216 73.5249 25.288 73.9409 25.288C74.4529 25.288 74.8689 25.12 75.1889 24.784C75.5249 24.448 75.6929 23.864 75.6929 23.032V10H77.6129ZM87.0839 22.24C85.9479 22.24 84.9319 21.992 84.0359 21.496C83.1559 21 82.4679 20.288 81.9719 19.36C81.4759 18.416 81.2279 17.296 81.2279 16C81.2279 14.704 81.4759 13.592 81.9719 12.664C82.4679 11.72 83.1479 11 84.0119 10.504C84.8759 10.008 85.8599 9.76 86.9639 9.76C88.0839 9.76 89.0359 10 89.8199 10.48C90.6199 10.96 91.2279 11.616 91.6439 12.448C92.0599 13.264 92.2679 14.184 92.2679 15.208C92.2679 15.48 92.2599 15.728 92.2439 15.952C92.2279 16.176 92.2039 16.376 92.1719 16.552H82.4759V14.848H91.3319L90.3479 15.04C90.3479 13.888 90.0279 13 89.3879 12.376C88.7639 11.752 87.9399 11.44 86.9159 11.44C86.1319 11.44 85.4519 11.624 84.8759 11.992C84.3159 12.344 83.8759 12.864 83.5559 13.552C83.2519 14.224 83.0999 15.04 83.0999 16C83.0999 16.944 83.2599 17.76 83.5799 18.448C83.8999 19.136 84.3479 19.664 84.9239 20.032C85.5159 20.384 86.2199 20.56 87.0359 20.56C87.9159 20.56 88.6279 20.392 89.1719 20.056C89.7319 19.72 90.1799 19.264 90.5159 18.688L92.0279 19.576C91.7239 20.12 91.3319 20.592 90.8519 20.992C90.3879 21.392 89.8359 21.704 89.1959 21.928C88.5719 22.136 87.8679 22.24 87.0839 22.24ZM100.888 9.76C101.72 9.76 102.448 9.888 103.072 10.144C103.712 10.4 104.264 10.768 104.728 11.248C105.192 11.728 105.568 12.296 105.856 12.952L104.032 13.816C103.776 13.048 103.384 12.464 102.856 12.064C102.344 11.648 101.672 11.44 100.84 11.44C100.04 11.44 99.3515 11.624 98.7755 11.992C98.1995 12.344 97.7595 12.864 97.4555 13.552C97.1515 14.224 96.9995 15.04 96.9995 16C96.9995 16.944 97.1515 17.76 97.4555 18.448C97.7595 19.136 98.1995 19.664 98.7755 20.032C99.3515 20.384 100.04 20.56 100.84 20.56C101.464 20.56 102 20.464 102.448 20.272C102.912 20.08 103.288 19.8 103.576 19.432C103.88 19.064 104.088 18.616 104.2 18.088L105.976 18.712C105.704 19.448 105.328 20.08 104.848 20.608C104.384 21.136 103.816 21.544 103.144 21.832C102.488 22.104 101.736 22.24 100.888 22.24C99.7675 22.24 98.7675 21.992 97.8875 21.496C97.0075 21 96.3195 20.288 95.8235 19.36C95.3275 18.416 95.0795 17.296 95.0795 16C95.0795 14.704 95.3275 13.592 95.8235 12.664C96.3195 11.72 97.0075 11 97.8875 10.504C98.7675 10.008 99.7675 9.76 100.888 9.76ZM112.181 6.592V18.688C112.181 19.28 112.349 19.72 112.685 20.008C113.021 20.296 113.453 20.44 113.981 20.44C114.445 20.44 114.845 20.36 115.181 20.2C115.517 20.04 115.821 19.824 116.093 19.552L116.765 21.16C116.397 21.496 115.957 21.76 115.445 21.952C114.949 22.144 114.373 22.24 113.717 22.24C113.109 22.24 112.541 22.136 112.013 21.928C111.485 21.704 111.061 21.36 110.741 20.896C110.437 20.416 110.277 19.792 110.261 19.024V7.12L112.181 6.592ZM116.549 10V11.656H107.861V10H116.549ZM123.724 22.24C122.556 22.24 121.476 21.992 120.484 21.496C119.508 21 118.756 20.296 118.228 19.384L119.86 18.208C120.212 18.944 120.724 19.52 121.396 19.936C122.084 20.352 122.908 20.56 123.868 20.56C124.716 20.56 125.38 20.4 125.86 20.08C126.34 19.744 126.58 19.312 126.58 18.784C126.58 18.448 126.468 18.144 126.244 17.872C126.036 17.584 125.628 17.376 125.02 17.248L122.14 16.648C120.972 16.408 120.132 16.008 119.62 15.448C119.124 14.888 118.876 14.192 118.876 13.36C118.876 12.704 119.06 12.104 119.428 11.56C119.812 11.016 120.348 10.584 121.036 10.264C121.74 9.928 122.564 9.76 123.508 9.76C124.692 9.76 125.692 9.992 126.508 10.456C127.324 10.92 127.932 11.576 128.332 12.424L126.724 13.48C126.452 12.776 126.012 12.264 125.404 11.944C124.796 11.608 124.164 11.44 123.508 11.44C122.932 11.44 122.436 11.52 122.02 11.68C121.62 11.84 121.308 12.064 121.084 12.352C120.876 12.624 120.772 12.936 120.772 13.288C120.772 13.64 120.892 13.968 121.132 14.272C121.372 14.56 121.82 14.768 122.476 14.896L125.476 15.52C126.596 15.744 127.38 16.112 127.828 16.624C128.276 17.136 128.5 17.76 128.5 18.496C128.5 19.248 128.3 19.912 127.9 20.488C127.5 21.048 126.94 21.48 126.22 21.784C125.5 22.088 124.668 22.24 123.724 22.24ZM153.368 17.944C153.032 18.84 152.552 19.616 151.928 20.272C151.304 20.912 150.568 21.4 149.72 21.736C148.888 22.072 147.976 22.24 146.984 22.24C145.48 22.24 144.176 21.912 143.072 21.256C141.984 20.584 141.136 19.64 140.528 18.424C139.936 17.208 139.64 15.76 139.64 14.08C139.64 12.4 139.936 10.952 140.528 9.736C141.136 8.52 141.984 7.584 143.072 6.928C144.176 6.256 145.464 5.92 146.936 5.92C147.96 5.92 148.872 6.064 149.672 6.352C150.472 6.624 151.152 7.04 151.712 7.6C152.288 8.144 152.744 8.816 153.08 9.616L151.184 10.504C150.832 9.592 150.32 8.904 149.648 8.44C148.992 7.96 148.136 7.72 147.08 7.72C146.008 7.72 145.064 7.976 144.248 8.488C143.432 8.984 142.792 9.704 142.328 10.648C141.88 11.592 141.656 12.736 141.656 14.08C141.656 15.408 141.872 16.552 142.304 17.512C142.736 18.456 143.352 19.184 144.152 19.696C144.952 20.192 145.896 20.44 146.984 20.44C148.04 20.44 148.96 20.176 149.744 19.648C150.528 19.104 151.096 18.296 151.448 17.224L153.368 17.944ZM161.661 9.76C162.797 9.76 163.797 10.008 164.661 10.504C165.541 11 166.229 11.72 166.725 12.664C167.221 13.592 167.469 14.704 167.469 16C167.469 17.296 167.221 18.416 166.725 19.36C166.229 20.288 165.541 21 164.661 21.496C163.797 21.992 162.797 22.24 161.661 22.24C160.541 22.24 159.541 21.992 158.661 21.496C157.781 21 157.093 20.288 156.597 19.36C156.101 18.416 155.853 17.296 155.853 16C155.853 14.704 156.101 13.592 156.597 12.664C157.093 11.72 157.781 11 158.661 10.504C159.541 10.008 160.541 9.76 161.661 9.76ZM161.661 11.416C160.845 11.416 160.149 11.6 159.573 11.968C158.997 12.336 158.549 12.864 158.229 13.552C157.925 14.224 157.773 15.04 157.773 16C157.773 16.944 157.925 17.76 158.229 18.448C158.549 19.136 158.997 19.664 159.573 20.032C160.149 20.4 160.845 20.584 161.661 20.584C162.477 20.584 163.173 20.4 163.749 20.032C164.325 19.664 164.765 19.136 165.069 18.448C165.389 17.76 165.549 16.944 165.549 16C165.549 15.04 165.389 14.224 165.069 13.552C164.765 12.864 164.325 12.336 163.749 11.968C163.173 11.6 162.477 11.416 161.661 11.416ZM171.084 22V10H172.764L172.884 11.872C173.316 11.136 173.876 10.6 174.564 10.264C175.268 9.928 175.988 9.76 176.724 9.76C177.572 9.76 178.372 9.952 179.124 10.336C179.876 10.72 180.452 11.312 180.852 12.112C181.108 11.568 181.468 11.128 181.932 10.792C182.396 10.44 182.9 10.184 183.444 10.024C184.004 9.848 184.532 9.76 185.028 9.76C185.796 9.76 186.524 9.92 187.212 10.24C187.916 10.56 188.492 11.056 188.94 11.728C189.388 12.4 189.612 13.264 189.612 14.32V22H187.692V14.512C187.692 13.424 187.42 12.64 186.876 12.16C186.332 11.68 185.66 11.44 184.86 11.44C184.236 11.44 183.652 11.592 183.108 11.896C182.564 12.2 182.124 12.648 181.788 13.24C181.468 13.832 181.308 14.56 181.308 15.424V22H179.388V14.512C179.388 13.424 179.116 12.64 178.572 12.16C178.028 11.68 177.356 11.44 176.556 11.44C176.028 11.44 175.484 11.584 174.924 11.872C174.38 12.144 173.924 12.584 173.556 13.192C173.188 13.8 173.004 14.6 173.004 15.592V22H171.084ZM193.959 27.04V10H195.639L195.807 12.928L195.543 12.592C195.751 12.032 196.063 11.544 196.479 11.128C196.895 10.696 197.399 10.36 197.991 10.12C198.583 9.88 199.223 9.76 199.911 9.76C200.887 9.76 201.783 10.008 202.599 10.504C203.431 11 204.095 11.712 204.591 12.64C205.087 13.568 205.335 14.688 205.335 16C205.335 17.296 205.079 18.416 204.567 19.36C204.071 20.288 203.407 21 202.575 21.496C201.743 21.992 200.831 22.24 199.839 22.24C198.847 22.24 197.975 22 197.223 21.52C196.487 21.024 195.959 20.4 195.639 19.648L195.879 19.288V27.04H193.959ZM199.647 20.56C200.831 20.56 201.751 20.144 202.407 19.312C203.079 18.48 203.415 17.376 203.415 16C203.415 14.624 203.087 13.52 202.431 12.688C201.791 11.856 200.887 11.44 199.719 11.44C198.951 11.44 198.279 11.632 197.703 12.016C197.127 12.384 196.679 12.912 196.359 13.6C196.039 14.272 195.879 15.072 195.879 16C195.879 16.912 196.031 17.712 196.335 18.4C196.655 19.088 197.095 19.624 197.655 20.008C198.231 20.376 198.895 20.56 199.647 20.56ZM210.829 4.48V18.952C210.829 19.56 210.941 19.984 211.165 20.224C211.389 20.448 211.749 20.56 212.245 20.56C212.565 20.56 212.829 20.536 213.037 20.488C213.245 20.44 213.525 20.352 213.877 20.224L213.565 21.904C213.309 22.016 213.029 22.096 212.725 22.144C212.421 22.208 212.109 22.24 211.789 22.24C210.813 22.24 210.085 21.976 209.605 21.448C209.141 20.92 208.909 20.112 208.909 19.024V4.48H210.829ZM221.357 22.24C220.221 22.24 219.205 21.992 218.309 21.496C217.429 21 216.741 20.288 216.245 19.36C215.749 18.416 215.501 17.296 215.501 16C215.501 14.704 215.749 13.592 216.245 12.664C216.741 11.72 217.421 11 218.285 10.504C219.149 10.008 220.133 9.76 221.237 9.76C222.357 9.76 223.309 10 224.093 10.48C224.893 10.96 225.501 11.616 225.917 12.448C226.333 13.264 226.541 14.184 226.541 15.208C226.541 15.48 226.533 15.728 226.517 15.952C226.501 16.176 226.477 16.376 226.445 16.552H216.749V14.848H225.605L224.621 15.04C224.621 13.888 224.301 13 223.661 12.376C223.037 11.752 222.213 11.44 221.189 11.44C220.405 11.44 219.725 11.624 219.149 11.992C218.589 12.344 218.149 12.864 217.829 13.552C217.525 14.224 217.373 15.04 217.373 16C217.373 16.944 217.533 17.76 217.853 18.448C218.173 19.136 218.621 19.664 219.197 20.032C219.789 20.384 220.493 20.56 221.309 20.56C222.189 20.56 222.901 20.392 223.445 20.056C224.005 19.72 224.453 19.264 224.789 18.688L226.301 19.576C225.997 20.12 225.605 20.592 225.125 20.992C224.661 21.392 224.109 21.704 223.469 21.928C222.845 22.136 222.141 22.24 221.357 22.24ZM232.673 6.592V18.688C232.673 19.28 232.841 19.72 233.177 20.008C233.513 20.296 233.945 20.44 234.473 20.44C234.937 20.44 235.337 20.36 235.673 20.2C236.009 20.04 236.313 19.824 236.585 19.552L237.257 21.16C236.889 21.496 236.449 21.76 235.937 21.952C235.441 22.144 234.865 22.24 234.209 22.24C233.601 22.24 233.033 22.136 232.505 21.928C231.977 21.704 231.553 21.36 231.233 20.896C230.929 20.416 230.769 19.792 230.753 19.024V7.12L232.673 6.592ZM237.041 10V11.656H228.353V10H237.041ZM244.912 22.24C243.776 22.24 242.76 21.992 241.864 21.496C240.984 21 240.296 20.288 239.8 19.36C239.304 18.416 239.056 17.296 239.056 16C239.056 14.704 239.304 13.592 239.8 12.664C240.296 11.72 240.976 11 241.84 10.504C242.704 10.008 243.688 9.76 244.792 9.76C245.912 9.76 246.864 10 247.648 10.48C248.448 10.96 249.056 11.616 249.472 12.448C249.888 13.264 250.096 14.184 250.096 15.208C250.096 15.48 250.088 15.728 250.072 15.952C250.056 16.176 250.032 16.376 250 16.552H240.304V14.848H249.16L248.176 15.04C248.176 13.888 247.856 13 247.216 12.376C246.592 11.752 245.768 11.44 244.744 11.44C243.96 11.44 243.28 11.624 242.704 11.992C242.144 12.344 241.704 12.864 241.384 13.552C241.08 14.224 240.928 15.04 240.928 16C240.928 16.944 241.088 17.76 241.408 18.448C241.728 19.136 242.176 19.664 242.752 20.032C243.344 20.384 244.048 20.56 244.864 20.56C245.744 20.56 246.456 20.392 247 20.056C247.56 19.72 248.008 19.264 248.344 18.688L249.856 19.576C249.552 20.12 249.16 20.592 248.68 20.992C248.216 21.392 247.664 21.704 247.024 21.928C246.4 22.136 245.696 22.24 244.912 22.24ZM258.428 22.24C257.436 22.24 256.524 21.992 255.692 21.496C254.86 21 254.196 20.288 253.7 19.36C253.204 18.416 252.956 17.296 252.956 16C252.956 14.672 253.22 13.544 253.748 12.616C254.276 11.688 254.972 10.984 255.836 10.504C256.7 10.008 257.628 9.76 258.62 9.76C259.612 9.76 260.468 10.016 261.188 10.528C261.924 11.04 262.412 11.72 262.652 12.568L262.412 12.736V4.48H264.332V22H262.652L262.484 19.096L262.748 18.952C262.636 19.656 262.364 20.256 261.932 20.752C261.516 21.232 260.996 21.6 260.372 21.856C259.764 22.112 259.116 22.24 258.428 22.24ZM258.62 20.56C259.388 20.56 260.052 20.368 260.612 19.984C261.188 19.6 261.628 19.056 261.932 18.352C262.252 17.632 262.412 16.792 262.412 15.832C262.412 14.92 262.252 14.136 261.932 13.48C261.628 12.824 261.196 12.32 260.636 11.968C260.092 11.616 259.452 11.44 258.716 11.44C257.5 11.44 256.556 11.856 255.884 12.688C255.212 13.52 254.876 14.624 254.876 16C254.876 17.376 255.204 18.48 255.86 19.312C256.516 20.144 257.436 20.56 258.62 20.56Z" fill="#667299"/>
</svg>
