<svg width="40" height="40" viewBox="0 0 40 40" fill="none" xmlns="http://www.w3.org/2000/svg">
<g clip-path="url(#clip0_1_2314)">
<path d="M20 0.799988C9.396 0.799988 0.800003 9.39599 0.800003 20C0.800003 30.604 9.396 39.2 20 39.2C30.604 39.2 39.2 30.604 39.2 20C39.2 9.39599 30.604 0.799988 20 0.799988ZM27.81 16.528C27.818 16.692 27.82 16.856 27.82 17.016C27.82 22.016 24.018 27.778 17.062 27.778C15.0066 27.7814 12.9939 27.1911 11.266 26.078C11.56 26.114 11.862 26.128 12.168 26.128C13.94 26.128 15.57 25.526 16.864 24.51C16.0754 24.4945 15.3113 24.2334 14.6782 23.763C14.0451 23.2927 13.5745 22.6365 13.332 21.886C13.8983 21.9937 14.4817 21.9711 15.038 21.82C14.1821 21.6469 13.4124 21.1831 12.8594 20.5073C12.3064 19.8315 12.0042 18.9852 12.004 18.112V18.066C12.514 18.348 13.098 18.52 13.718 18.54C12.9156 18.0058 12.3476 17.1853 12.1301 16.2463C11.9126 15.3072 12.0621 14.3205 12.548 13.488C13.4979 14.656 14.6825 15.6115 16.0251 16.2926C17.3678 16.9737 18.8384 17.3653 20.342 17.442C20.1509 16.6306 20.2331 15.7788 20.576 15.019C20.9189 14.2592 21.5032 13.634 22.2381 13.2405C22.973 12.8471 23.8173 12.7074 24.6398 12.8433C25.4622 12.9792 26.2167 13.383 26.786 13.992C27.6323 13.8245 28.444 13.5141 29.186 13.074C28.9039 13.9503 28.3134 14.6943 27.524 15.168C28.2737 15.0777 29.0057 14.8761 29.696 14.57C29.189 15.3298 28.5503 15.9929 27.81 16.528Z" fill="#3D445C"/>
</g>
<defs>
<clipPath id="clip0_1_2314">
<rect width="40" height="40" fill="white"/>
</clipPath>
</defs>
</svg>
