<svg width="273" height="28" viewBox="0 0 273 28" fill="none" xmlns="http://www.w3.org/2000/svg">
<rect x="16" width="7" height="28" fill="#F9995D"/>
<path d="M48.488 6.16L42.824 15.808V22H40.904V15.808L35.24 6.16H37.52L40.592 11.584L41.864 13.84L43.136 11.584L46.208 6.16H48.488ZM54.248 22.24C53.112 22.24 52.096 21.992 51.2 21.496C50.32 21 49.632 20.288 49.136 19.36C48.64 18.416 48.392 17.296 48.392 16C48.392 14.704 48.64 13.592 49.136 12.664C49.632 11.72 50.312 11 51.176 10.504C52.04 10.008 53.024 9.76 54.128 9.76C55.248 9.76 56.2 10 56.984 10.48C57.784 10.96 58.392 11.616 58.808 12.448C59.224 13.264 59.432 14.184 59.432 15.208C59.432 15.48 59.424 15.728 59.408 15.952C59.392 16.176 59.368 16.376 59.336 16.552H49.64V14.848H58.496L57.512 15.04C57.512 13.888 57.192 13 56.552 12.376C55.928 11.752 55.104 11.44 54.08 11.44C53.296 11.44 52.616 11.624 52.04 11.992C51.48 12.344 51.04 12.864 50.72 13.552C50.416 14.224 50.264 15.04 50.264 16C50.264 16.944 50.424 17.76 50.744 18.448C51.064 19.136 51.512 19.664 52.088 20.032C52.68 20.384 53.384 20.56 54.2 20.56C55.08 20.56 55.792 20.392 56.336 20.056C56.896 19.72 57.344 19.264 57.68 18.688L59.192 19.576C58.888 20.12 58.496 20.592 58.016 20.992C57.552 21.392 57 21.704 56.36 21.928C55.736 22.136 55.032 22.24 54.248 22.24ZM70.0916 14.248C70.0916 13.352 69.8516 12.664 69.3716 12.184C68.8916 11.688 68.2116 11.44 67.3316 11.44C66.4996 11.44 65.7956 11.624 65.2196 11.992C64.6436 12.344 64.2196 12.92 63.9476 13.72L62.3876 12.76C62.7076 11.864 63.2996 11.144 64.1636 10.6C65.0276 10.04 66.0996 9.76 67.3796 9.76C68.2436 9.76 69.0276 9.912 69.7316 10.216C70.4356 10.504 70.9876 10.952 71.3876 11.56C71.8036 12.152 72.0116 12.92 72.0116 13.864V19.672C72.0116 20.248 72.3156 20.536 72.9236 20.536C73.2276 20.536 73.5236 20.496 73.8116 20.416L73.7156 21.928C73.3956 22.088 72.9796 22.168 72.4676 22.168C72.0036 22.168 71.5876 22.08 71.2196 21.904C70.8516 21.728 70.5636 21.464 70.3556 21.112C70.1476 20.744 70.0436 20.288 70.0436 19.744V19.504L70.5236 19.576C70.3316 20.2 70.0036 20.712 69.5396 21.112C69.0756 21.496 68.5556 21.784 67.9796 21.976C67.4036 22.152 66.8356 22.24 66.2756 22.24C65.5716 22.24 64.9156 22.12 64.3076 21.88C63.6996 21.64 63.2116 21.28 62.8436 20.8C62.4916 20.304 62.3156 19.696 62.3156 18.976C62.3156 18.08 62.6116 17.344 63.2036 16.768C63.8116 16.176 64.6516 15.776 65.7236 15.568L70.4756 14.632V16.216L66.6116 17.008C65.8276 17.168 65.2436 17.392 64.8596 17.68C64.4756 17.968 64.2836 18.368 64.2836 18.88C64.2836 19.376 64.4756 19.784 64.8596 20.104C65.2596 20.408 65.8196 20.56 66.5396 20.56C67.0036 20.56 67.4436 20.504 67.8596 20.392C68.2916 20.264 68.6756 20.08 69.0116 19.84C69.3476 19.584 69.6116 19.272 69.8036 18.904C69.9956 18.52 70.0916 18.072 70.0916 17.56V14.248ZM76.6773 22V10H78.2373L78.5013 11.968C78.8373 11.232 79.3253 10.68 79.9653 10.312C80.6213 9.944 81.4133 9.76 82.3413 9.76C82.5493 9.76 82.7733 9.776 83.0133 9.808C83.2693 9.84 83.4853 9.904 83.6613 10L83.3253 11.752C83.1493 11.688 82.9573 11.64 82.7493 11.608C82.5413 11.576 82.2453 11.56 81.8613 11.56C81.3653 11.56 80.8613 11.704 80.3493 11.992C79.8533 12.28 79.4373 12.72 79.1013 13.312C78.7653 13.888 78.5973 14.624 78.5973 15.52V22H76.6773ZM90.2786 22.24C89.1106 22.24 88.0306 21.992 87.0386 21.496C86.0626 21 85.3106 20.296 84.7826 19.384L86.4146 18.208C86.7666 18.944 87.2786 19.52 87.9506 19.936C88.6386 20.352 89.4626 20.56 90.4226 20.56C91.2706 20.56 91.9346 20.4 92.4146 20.08C92.8946 19.744 93.1346 19.312 93.1346 18.784C93.1346 18.448 93.0226 18.144 92.7986 17.872C92.5906 17.584 92.1826 17.376 91.5746 17.248L88.6946 16.648C87.5266 16.408 86.6866 16.008 86.1746 15.448C85.6786 14.888 85.4306 14.192 85.4306 13.36C85.4306 12.704 85.6146 12.104 85.9826 11.56C86.3666 11.016 86.9026 10.584 87.5906 10.264C88.2946 9.928 89.1186 9.76 90.0626 9.76C91.2466 9.76 92.2466 9.992 93.0626 10.456C93.8786 10.92 94.4866 11.576 94.8866 12.424L93.2786 13.48C93.0066 12.776 92.5666 12.264 91.9586 11.944C91.3506 11.608 90.7186 11.44 90.0626 11.44C89.4866 11.44 88.9906 11.52 88.5746 11.68C88.1746 11.84 87.8626 12.064 87.6386 12.352C87.4306 12.624 87.3266 12.936 87.3266 13.288C87.3266 13.64 87.4466 13.968 87.6866 14.272C87.9266 14.56 88.3746 14.768 89.0306 14.896L92.0306 15.52C93.1506 15.744 93.9346 16.112 94.3826 16.624C94.8306 17.136 95.0546 17.76 95.0546 18.496C95.0546 19.248 94.8546 19.912 94.4546 20.488C94.0546 21.048 93.4946 21.48 92.7746 21.784C92.0546 22.088 91.2226 22.24 90.2786 22.24ZM107.755 7.696C107.323 7.696 106.971 7.568 106.699 7.312C106.443 7.04 106.315 6.688 106.315 6.256C106.315 5.824 106.443 5.48 106.699 5.224C106.971 4.952 107.323 4.816 107.755 4.816C108.187 4.816 108.531 4.952 108.787 5.224C109.059 5.48 109.195 5.824 109.195 6.256C109.195 6.688 109.059 7.04 108.787 7.312C108.531 7.568 108.187 7.696 107.755 7.696ZM108.715 10V22H106.795V10H108.715ZM113.17 22V10H114.85L115.018 12.688L114.706 12.424C114.962 11.784 115.306 11.272 115.738 10.888C116.17 10.488 116.666 10.2 117.226 10.024C117.802 9.848 118.394 9.76 119.002 9.76C119.866 9.76 120.65 9.928 121.354 10.264C122.058 10.584 122.618 11.08 123.034 11.752C123.466 12.424 123.682 13.28 123.682 14.32V22H121.762V14.992C121.762 13.664 121.474 12.744 120.898 12.232C120.338 11.704 119.642 11.44 118.81 11.44C118.234 11.44 117.658 11.576 117.082 11.848C116.506 12.12 116.026 12.56 115.642 13.168C115.274 13.776 115.09 14.592 115.09 15.616V22H113.17ZM136.569 22V6.16H142.209C144.081 6.16 145.449 6.552 146.313 7.336C147.177 8.12 147.609 9.184 147.609 10.528C147.609 11.328 147.377 12.056 146.913 12.712C146.449 13.352 145.793 13.76 144.945 13.936V13.96C145.889 14.136 146.633 14.568 147.177 15.256C147.737 15.928 148.017 16.696 148.017 17.56C148.017 18.904 147.513 19.984 146.505 20.8C145.497 21.6 144.057 22 142.185 22H136.569ZM138.489 20.2H142.641C143.777 20.2 144.617 19.968 145.161 19.504C145.721 19.04 146.001 18.392 146.001 17.56C146.001 16.712 145.721 16.064 145.161 15.616C144.617 15.152 143.777 14.92 142.641 14.92H138.489V20.2ZM138.489 13.12H142.233C144.473 13.12 145.593 12.256 145.593 10.528C145.593 8.816 144.473 7.96 142.233 7.96H138.489V13.12ZM156.232 22.24C155.464 22.24 154.736 22.096 154.048 21.808C153.376 21.52 152.824 21.056 152.392 20.416C151.976 19.76 151.768 18.912 151.768 17.872V10H153.688V17.368C153.688 18.584 153.952 19.424 154.48 19.888C155.008 20.336 155.752 20.56 156.712 20.56C157.16 20.56 157.6 20.488 158.032 20.344C158.464 20.184 158.848 19.944 159.184 19.624C159.536 19.288 159.808 18.864 160 18.352C160.208 17.84 160.312 17.232 160.312 16.528V10H162.232V22H160.552L160.432 20.176C160.016 20.896 159.448 21.424 158.728 21.76C158.024 22.08 157.192 22.24 156.232 22.24ZM171.021 22.24C169.853 22.24 168.773 21.992 167.781 21.496C166.805 21 166.053 20.296 165.525 19.384L167.157 18.208C167.509 18.944 168.021 19.52 168.693 19.936C169.381 20.352 170.205 20.56 171.165 20.56C172.013 20.56 172.677 20.4 173.157 20.08C173.637 19.744 173.877 19.312 173.877 18.784C173.877 18.448 173.765 18.144 173.541 17.872C173.333 17.584 172.925 17.376 172.317 17.248L169.437 16.648C168.269 16.408 167.429 16.008 166.917 15.448C166.421 14.888 166.173 14.192 166.173 13.36C166.173 12.704 166.357 12.104 166.725 11.56C167.109 11.016 167.645 10.584 168.333 10.264C169.037 9.928 169.861 9.76 170.805 9.76C171.989 9.76 172.989 9.992 173.805 10.456C174.621 10.92 175.229 11.576 175.629 12.424L174.021 13.48C173.749 12.776 173.309 12.264 172.701 11.944C172.093 11.608 171.461 11.44 170.805 11.44C170.229 11.44 169.733 11.52 169.317 11.68C168.917 11.84 168.605 12.064 168.381 12.352C168.173 12.624 168.069 12.936 168.069 13.288C168.069 13.64 168.189 13.968 168.429 14.272C168.669 14.56 169.117 14.768 169.773 14.896L172.773 15.52C173.893 15.744 174.677 16.112 175.125 16.624C175.573 17.136 175.797 17.76 175.797 18.496C175.797 19.248 175.597 19.912 175.197 20.488C174.797 21.048 174.237 21.48 173.517 21.784C172.797 22.088 171.965 22.24 171.021 22.24ZM180.317 7.696C179.885 7.696 179.533 7.568 179.261 7.312C179.005 7.04 178.877 6.688 178.877 6.256C178.877 5.824 179.005 5.48 179.261 5.224C179.533 4.952 179.885 4.816 180.317 4.816C180.749 4.816 181.093 4.952 181.349 5.224C181.621 5.48 181.757 5.824 181.757 6.256C181.757 6.688 181.621 7.04 181.349 7.312C181.093 7.568 180.749 7.696 180.317 7.696ZM181.277 10V22H179.357V10H181.277ZM185.732 22V10H187.412L187.58 12.688L187.268 12.424C187.524 11.784 187.868 11.272 188.3 10.888C188.732 10.488 189.228 10.2 189.788 10.024C190.364 9.848 190.956 9.76 191.564 9.76C192.428 9.76 193.212 9.928 193.916 10.264C194.62 10.584 195.18 11.08 195.596 11.752C196.028 12.424 196.244 13.28 196.244 14.32V22H194.324V14.992C194.324 13.664 194.036 12.744 193.46 12.232C192.9 11.704 192.204 11.44 191.372 11.44C190.796 11.44 190.22 11.576 189.644 11.848C189.068 12.12 188.588 12.56 188.204 13.168C187.836 13.776 187.652 14.592 187.652 15.616V22H185.732ZM205.607 22.24C204.471 22.24 203.455 21.992 202.559 21.496C201.679 21 200.991 20.288 200.495 19.36C199.999 18.416 199.751 17.296 199.751 16C199.751 14.704 199.999 13.592 200.495 12.664C200.991 11.72 201.671 11 202.535 10.504C203.399 10.008 204.383 9.76 205.487 9.76C206.607 9.76 207.559 10 208.343 10.48C209.143 10.96 209.751 11.616 210.167 12.448C210.583 13.264 210.791 14.184 210.791 15.208C210.791 15.48 210.783 15.728 210.767 15.952C210.751 16.176 210.727 16.376 210.695 16.552H200.999V14.848H209.855L208.871 15.04C208.871 13.888 208.551 13 207.911 12.376C207.287 11.752 206.463 11.44 205.439 11.44C204.655 11.44 203.975 11.624 203.399 11.992C202.839 12.344 202.399 12.864 202.079 13.552C201.775 14.224 201.623 15.04 201.623 16C201.623 16.944 201.783 17.76 202.103 18.448C202.423 19.136 202.871 19.664 203.447 20.032C204.039 20.384 204.743 20.56 205.559 20.56C206.439 20.56 207.151 20.392 207.695 20.056C208.255 19.72 208.703 19.264 209.039 18.688L210.551 19.576C210.247 20.12 209.855 20.592 209.375 20.992C208.911 21.392 208.359 21.704 207.719 21.928C207.095 22.136 206.391 22.24 205.607 22.24ZM218.763 22.24C217.595 22.24 216.515 21.992 215.523 21.496C214.547 21 213.795 20.296 213.267 19.384L214.899 18.208C215.251 18.944 215.763 19.52 216.435 19.936C217.123 20.352 217.947 20.56 218.907 20.56C219.755 20.56 220.419 20.4 220.899 20.08C221.379 19.744 221.619 19.312 221.619 18.784C221.619 18.448 221.507 18.144 221.283 17.872C221.075 17.584 220.667 17.376 220.059 17.248L217.179 16.648C216.011 16.408 215.171 16.008 214.659 15.448C214.163 14.888 213.915 14.192 213.915 13.36C213.915 12.704 214.099 12.104 214.467 11.56C214.851 11.016 215.387 10.584 216.075 10.264C216.779 9.928 217.603 9.76 218.547 9.76C219.731 9.76 220.731 9.992 221.547 10.456C222.363 10.92 222.971 11.576 223.371 12.424L221.763 13.48C221.491 12.776 221.051 12.264 220.443 11.944C219.835 11.608 219.203 11.44 218.547 11.44C217.971 11.44 217.475 11.52 217.059 11.68C216.659 11.84 216.347 12.064 216.123 12.352C215.915 12.624 215.811 12.936 215.811 13.288C215.811 13.64 215.931 13.968 216.171 14.272C216.411 14.56 216.859 14.768 217.515 14.896L220.515 15.52C221.635 15.744 222.419 16.112 222.867 16.624C223.315 17.136 223.539 17.76 223.539 18.496C223.539 19.248 223.339 19.912 222.939 20.488C222.539 21.048 221.979 21.48 221.259 21.784C220.539 22.088 219.707 22.24 218.763 22.24ZM231.419 22.24C230.251 22.24 229.171 21.992 228.179 21.496C227.203 21 226.451 20.296 225.923 19.384L227.555 18.208C227.907 18.944 228.419 19.52 229.091 19.936C229.779 20.352 230.603 20.56 231.563 20.56C232.411 20.56 233.075 20.4 233.555 20.08C234.035 19.744 234.275 19.312 234.275 18.784C234.275 18.448 234.163 18.144 233.939 17.872C233.731 17.584 233.323 17.376 232.715 17.248L229.835 16.648C228.667 16.408 227.827 16.008 227.315 15.448C226.819 14.888 226.571 14.192 226.571 13.36C226.571 12.704 226.755 12.104 227.123 11.56C227.507 11.016 228.043 10.584 228.731 10.264C229.435 9.928 230.259 9.76 231.203 9.76C232.387 9.76 233.387 9.992 234.203 10.456C235.019 10.92 235.627 11.576 236.027 12.424L234.419 13.48C234.147 12.776 233.707 12.264 233.099 11.944C232.491 11.608 231.859 11.44 231.203 11.44C230.627 11.44 230.131 11.52 229.715 11.68C229.315 11.84 229.003 12.064 228.779 12.352C228.571 12.624 228.467 12.936 228.467 13.288C228.467 13.64 228.587 13.968 228.827 14.272C229.067 14.56 229.515 14.768 230.171 14.896L233.171 15.52C234.291 15.744 235.075 16.112 235.523 16.624C235.971 17.136 236.195 17.76 236.195 18.496C236.195 19.248 235.995 19.912 235.595 20.488C235.195 21.048 234.635 21.48 233.915 21.784C233.195 22.088 232.363 22.24 231.419 22.24Z" fill="#667299"/>
</svg>
