<svg width="247" height="69" viewBox="0 0 247 69" fill="none" xmlns="http://www.w3.org/2000/svg">
<rect y="0.5" width="247" height="68" rx="34" fill="#E0E1DD"/>
<path d="M92.901 40.5V27.9H98.805C100.317 27.9 101.469 28.2 102.261 28.8C103.053 29.388 103.449 30.18 103.449 31.176C103.449 31.848 103.293 32.424 102.981 32.904C102.669 33.372 102.249 33.738 101.721 34.002C101.205 34.254 100.641 34.38 100.029 34.38L100.353 33.732C101.061 33.732 101.697 33.864 102.261 34.128C102.825 34.38 103.269 34.752 103.593 35.244C103.929 35.736 104.097 36.348 104.097 37.08C104.097 38.16 103.683 39 102.855 39.6C102.027 40.2 100.797 40.5 99.165 40.5H92.901ZM95.241 38.664H99.021C99.897 38.664 100.569 38.52 101.037 38.232C101.505 37.944 101.739 37.482 101.739 36.846C101.739 36.222 101.505 35.766 101.037 35.478C100.569 35.178 99.897 35.028 99.021 35.028H95.061V33.21H98.553C99.369 33.21 99.993 33.066 100.425 32.778C100.869 32.49 101.091 32.058 101.091 31.482C101.091 30.894 100.869 30.456 100.425 30.168C99.993 29.88 99.369 29.736 98.553 29.736H95.241V38.664ZM110.446 40.626C109.63 40.626 108.91 40.476 108.286 40.176C107.662 39.864 107.176 39.396 106.828 38.772C106.48 38.136 106.306 37.338 106.306 36.378V30.888H108.556V36.072C108.556 36.936 108.748 37.584 109.132 38.016C109.528 38.436 110.086 38.646 110.806 38.646C111.334 38.646 111.79 38.538 112.174 38.322C112.57 38.106 112.876 37.782 113.092 37.35C113.32 36.918 113.434 36.384 113.434 35.748V30.888H115.684V40.5H113.542V37.908L113.92 38.7C113.596 39.324 113.122 39.804 112.498 40.14C111.874 40.464 111.19 40.626 110.446 40.626ZM122.248 40.626C121.192 40.626 120.376 40.356 119.8 39.816C119.224 39.264 118.936 38.454 118.936 37.386V28.764H121.186V37.332C121.186 37.788 121.3 38.142 121.528 38.394C121.768 38.646 122.098 38.772 122.518 38.772C123.022 38.772 123.442 38.64 123.778 38.376L124.408 39.978C124.144 40.194 123.82 40.356 123.436 40.464C123.052 40.572 122.656 40.626 122.248 40.626ZM117.352 32.76V30.96H123.76V32.76H117.352ZM129.649 40.626C128.593 40.626 127.777 40.356 127.201 39.816C126.625 39.264 126.337 38.454 126.337 37.386V28.764H128.587V37.332C128.587 37.788 128.701 38.142 128.929 38.394C129.169 38.646 129.499 38.772 129.919 38.772C130.423 38.772 130.843 38.64 131.179 38.376L131.809 39.978C131.545 40.194 131.221 40.356 130.837 40.464C130.453 40.572 130.057 40.626 129.649 40.626ZM124.753 32.76V30.96H131.161V32.76H124.753ZM137.663 40.626C136.679 40.626 135.803 40.416 135.035 39.996C134.267 39.564 133.661 38.976 133.217 38.232C132.773 37.488 132.551 36.642 132.551 35.694C132.551 34.734 132.773 33.888 133.217 33.156C133.661 32.412 134.267 31.83 135.035 31.41C135.803 30.99 136.679 30.78 137.663 30.78C138.659 30.78 139.541 30.99 140.309 31.41C141.089 31.83 141.695 32.406 142.127 33.138C142.571 33.87 142.793 34.722 142.793 35.694C142.793 36.642 142.571 37.488 142.127 38.232C141.695 38.976 141.089 39.564 140.309 39.996C139.541 40.416 138.659 40.626 137.663 40.626ZM137.663 38.7C138.215 38.7 138.707 38.58 139.139 38.34C139.571 38.1 139.907 37.752 140.147 37.296C140.399 36.84 140.525 36.306 140.525 35.694C140.525 35.07 140.399 34.536 140.147 34.092C139.907 33.636 139.571 33.288 139.139 33.048C138.707 32.808 138.221 32.688 137.681 32.688C137.129 32.688 136.637 32.808 136.205 33.048C135.785 33.288 135.449 33.636 135.197 34.092C134.945 34.536 134.819 35.07 134.819 35.694C134.819 36.306 134.945 36.84 135.197 37.296C135.449 37.752 135.785 38.1 136.205 38.34C136.637 38.58 137.123 38.7 137.663 38.7ZM150.399 30.78C151.167 30.78 151.851 30.93 152.451 31.23C153.063 31.53 153.543 31.992 153.891 32.616C154.239 33.228 154.413 34.02 154.413 34.992V40.5H152.163V35.28C152.163 34.428 151.959 33.792 151.551 33.372C151.155 32.952 150.597 32.742 149.877 32.742C149.349 32.742 148.881 32.85 148.473 33.066C148.065 33.282 147.747 33.606 147.519 34.038C147.303 34.458 147.195 34.992 147.195 35.64V40.5H144.945V30.888H147.087V33.48L146.709 32.688C147.045 32.076 147.531 31.608 148.167 31.284C148.815 30.948 149.559 30.78 150.399 30.78Z" fill="#0D1B2A"/>
</svg>
