<svg width="157" height="68" viewBox="0 0 157 68" fill="none" xmlns="http://www.w3.org/2000/svg">
<rect x="0.5" width="156" height="68" rx="34" fill="#0D1B2A"/>
<path d="M47.901 40V27.4H53.805C55.317 27.4 56.469 27.7 57.261 28.3C58.053 28.888 58.449 29.68 58.449 30.676C58.449 31.348 58.293 31.924 57.981 32.404C57.669 32.872 57.249 33.238 56.721 33.502C56.205 33.754 55.641 33.88 55.029 33.88L55.353 33.232C56.061 33.232 56.697 33.364 57.261 33.628C57.825 33.88 58.269 34.252 58.593 34.744C58.929 35.236 59.097 35.848 59.097 36.58C59.097 37.66 58.683 38.5 57.855 39.1C57.027 39.7 55.797 40 54.165 40H47.901ZM50.241 38.164H54.021C54.897 38.164 55.569 38.02 56.037 37.732C56.505 37.444 56.739 36.982 56.739 36.346C56.739 35.722 56.505 35.266 56.037 34.978C55.569 34.678 54.897 34.528 54.021 34.528H50.061V32.71H53.553C54.369 32.71 54.993 32.566 55.425 32.278C55.869 31.99 56.091 31.558 56.091 30.982C56.091 30.394 55.869 29.956 55.425 29.668C54.993 29.38 54.369 29.236 53.553 29.236H50.241V38.164ZM65.4463 40.126C64.6303 40.126 63.9103 39.976 63.2863 39.676C62.6623 39.364 62.1763 38.896 61.8283 38.272C61.4803 37.636 61.3063 36.838 61.3063 35.878V30.388H63.5563V35.572C63.5563 36.436 63.7483 37.084 64.1323 37.516C64.5283 37.936 65.0863 38.146 65.8063 38.146C66.3343 38.146 66.7903 38.038 67.1743 37.822C67.5703 37.606 67.8763 37.282 68.0923 36.85C68.3203 36.418 68.4343 35.884 68.4343 35.248V30.388H70.6843V40H68.5423V37.408L68.9203 38.2C68.5963 38.824 68.1223 39.304 67.4983 39.64C66.8743 39.964 66.1903 40.126 65.4463 40.126ZM77.2483 40.126C76.1923 40.126 75.3763 39.856 74.8003 39.316C74.2243 38.764 73.9363 37.954 73.9363 36.886V28.264H76.1863V36.832C76.1863 37.288 76.3003 37.642 76.5283 37.894C76.7683 38.146 77.0983 38.272 77.5183 38.272C78.0223 38.272 78.4423 38.14 78.7783 37.876L79.4083 39.478C79.1443 39.694 78.8203 39.856 78.4363 39.964C78.0523 40.072 77.6563 40.126 77.2483 40.126ZM72.3523 32.26V30.46H78.7603V32.26H72.3523ZM84.6487 40.126C83.5927 40.126 82.7767 39.856 82.2007 39.316C81.6247 38.764 81.3367 37.954 81.3367 36.886V28.264H83.5867V36.832C83.5867 37.288 83.7007 37.642 83.9287 37.894C84.1687 38.146 84.4987 38.272 84.9187 38.272C85.4227 38.272 85.8427 38.14 86.1787 37.876L86.8087 39.478C86.5447 39.694 86.2207 39.856 85.8367 39.964C85.4527 40.072 85.0567 40.126 84.6487 40.126ZM79.7527 32.26V30.46H86.1607V32.26H79.7527ZM92.6632 40.126C91.6792 40.126 90.8032 39.916 90.0352 39.496C89.2672 39.064 88.6612 38.476 88.2172 37.732C87.7732 36.988 87.5512 36.142 87.5512 35.194C87.5512 34.234 87.7732 33.388 88.2172 32.656C88.6612 31.912 89.2672 31.33 90.0352 30.91C90.8032 30.49 91.6792 30.28 92.6632 30.28C93.6592 30.28 94.5412 30.49 95.3092 30.91C96.0892 31.33 96.6952 31.906 97.1272 32.638C97.5712 33.37 97.7932 34.222 97.7932 35.194C97.7932 36.142 97.5712 36.988 97.1272 37.732C96.6952 38.476 96.0892 39.064 95.3092 39.496C94.5412 39.916 93.6592 40.126 92.6632 40.126ZM92.6632 38.2C93.2152 38.2 93.7072 38.08 94.1392 37.84C94.5712 37.6 94.9072 37.252 95.1472 36.796C95.3992 36.34 95.5252 35.806 95.5252 35.194C95.5252 34.57 95.3992 34.036 95.1472 33.592C94.9072 33.136 94.5712 32.788 94.1392 32.548C93.7072 32.308 93.2212 32.188 92.6812 32.188C92.1292 32.188 91.6372 32.308 91.2052 32.548C90.7852 32.788 90.4492 33.136 90.1972 33.592C89.9452 34.036 89.8192 34.57 89.8192 35.194C89.8192 35.806 89.9452 36.34 90.1972 36.796C90.4492 37.252 90.7852 37.6 91.2052 37.84C91.6372 38.08 92.1232 38.2 92.6632 38.2ZM105.399 30.28C106.167 30.28 106.851 30.43 107.451 30.73C108.063 31.03 108.543 31.492 108.891 32.116C109.239 32.728 109.413 33.52 109.413 34.492V40H107.163V34.78C107.163 33.928 106.959 33.292 106.551 32.872C106.155 32.452 105.597 32.242 104.877 32.242C104.349 32.242 103.881 32.35 103.473 32.566C103.065 32.782 102.747 33.106 102.519 33.538C102.303 33.958 102.195 34.492 102.195 35.14V40H99.9448V30.388H102.087V32.98L101.709 32.188C102.045 31.576 102.531 31.108 103.167 30.784C103.815 30.448 104.559 30.28 105.399 30.28Z" fill="#E0E1DD"/>
</svg>
