<svg width="215" height="68" viewBox="0 0 215 68" fill="none" xmlns="http://www.w3.org/2000/svg">
<rect x="0.5" width="214" height="68" rx="34" fill="#0D1B2A"/>
<path d="M76.901 40V27.4H82.805C84.317 27.4 85.469 27.7 86.261 28.3C87.053 28.888 87.449 29.68 87.449 30.676C87.449 31.348 87.293 31.924 86.981 32.404C86.669 32.872 86.249 33.238 85.721 33.502C85.205 33.754 84.641 33.88 84.029 33.88L84.353 33.232C85.061 33.232 85.697 33.364 86.261 33.628C86.825 33.88 87.269 34.252 87.593 34.744C87.929 35.236 88.097 35.848 88.097 36.58C88.097 37.66 87.683 38.5 86.855 39.1C86.027 39.7 84.797 40 83.165 40H76.901ZM79.241 38.164H83.021C83.897 38.164 84.569 38.02 85.037 37.732C85.505 37.444 85.739 36.982 85.739 36.346C85.739 35.722 85.505 35.266 85.037 34.978C84.569 34.678 83.897 34.528 83.021 34.528H79.061V32.71H82.553C83.369 32.71 83.993 32.566 84.425 32.278C84.869 31.99 85.091 31.558 85.091 30.982C85.091 30.394 84.869 29.956 84.425 29.668C83.993 29.38 83.369 29.236 82.553 29.236H79.241V38.164ZM94.4463 40.126C93.6303 40.126 92.9103 39.976 92.2863 39.676C91.6623 39.364 91.1763 38.896 90.8283 38.272C90.4803 37.636 90.3063 36.838 90.3063 35.878V30.388H92.5563V35.572C92.5563 36.436 92.7483 37.084 93.1323 37.516C93.5283 37.936 94.0863 38.146 94.8063 38.146C95.3343 38.146 95.7903 38.038 96.1743 37.822C96.5703 37.606 96.8763 37.282 97.0923 36.85C97.3203 36.418 97.4343 35.884 97.4343 35.248V30.388H99.6843V40H97.5423V37.408L97.9203 38.2C97.5963 38.824 97.1223 39.304 96.4983 39.64C95.8743 39.964 95.1903 40.126 94.4463 40.126ZM106.248 40.126C105.192 40.126 104.376 39.856 103.8 39.316C103.224 38.764 102.936 37.954 102.936 36.886V28.264H105.186V36.832C105.186 37.288 105.3 37.642 105.528 37.894C105.768 38.146 106.098 38.272 106.518 38.272C107.022 38.272 107.442 38.14 107.778 37.876L108.408 39.478C108.144 39.694 107.82 39.856 107.436 39.964C107.052 40.072 106.656 40.126 106.248 40.126ZM101.352 32.26V30.46H107.76V32.26H101.352ZM113.649 40.126C112.593 40.126 111.777 39.856 111.201 39.316C110.625 38.764 110.337 37.954 110.337 36.886V28.264H112.587V36.832C112.587 37.288 112.701 37.642 112.929 37.894C113.169 38.146 113.499 38.272 113.919 38.272C114.423 38.272 114.843 38.14 115.179 37.876L115.809 39.478C115.545 39.694 115.221 39.856 114.837 39.964C114.453 40.072 114.057 40.126 113.649 40.126ZM108.753 32.26V30.46H115.161V32.26H108.753ZM121.663 40.126C120.679 40.126 119.803 39.916 119.035 39.496C118.267 39.064 117.661 38.476 117.217 37.732C116.773 36.988 116.551 36.142 116.551 35.194C116.551 34.234 116.773 33.388 117.217 32.656C117.661 31.912 118.267 31.33 119.035 30.91C119.803 30.49 120.679 30.28 121.663 30.28C122.659 30.28 123.541 30.49 124.309 30.91C125.089 31.33 125.695 31.906 126.127 32.638C126.571 33.37 126.793 34.222 126.793 35.194C126.793 36.142 126.571 36.988 126.127 37.732C125.695 38.476 125.089 39.064 124.309 39.496C123.541 39.916 122.659 40.126 121.663 40.126ZM121.663 38.2C122.215 38.2 122.707 38.08 123.139 37.84C123.571 37.6 123.907 37.252 124.147 36.796C124.399 36.34 124.525 35.806 124.525 35.194C124.525 34.57 124.399 34.036 124.147 33.592C123.907 33.136 123.571 32.788 123.139 32.548C122.707 32.308 122.221 32.188 121.681 32.188C121.129 32.188 120.637 32.308 120.205 32.548C119.785 32.788 119.449 33.136 119.197 33.592C118.945 34.036 118.819 34.57 118.819 35.194C118.819 35.806 118.945 36.34 119.197 36.796C119.449 37.252 119.785 37.6 120.205 37.84C120.637 38.08 121.123 38.2 121.663 38.2ZM134.399 30.28C135.167 30.28 135.851 30.43 136.451 30.73C137.063 31.03 137.543 31.492 137.891 32.116C138.239 32.728 138.413 33.52 138.413 34.492V40H136.163V34.78C136.163 33.928 135.959 33.292 135.551 32.872C135.155 32.452 134.597 32.242 133.877 32.242C133.349 32.242 132.881 32.35 132.473 32.566C132.065 32.782 131.747 33.106 131.519 33.538C131.303 33.958 131.195 34.492 131.195 35.14V40H128.945V30.388H131.087V32.98L130.709 32.188C131.045 31.576 131.531 31.108 132.167 30.784C132.815 30.448 133.559 30.28 134.399 30.28Z" fill="#E0E1DD"/>
</svg>
