<svg width="46" height="34" viewBox="0 0 46 34" fill="none" xmlns="http://www.w3.org/2000/svg">
<path d="M35.5 30.5416C37.2291 30.5416 38.625 29.1458 38.625 27.4166C38.625 25.6874 37.2291 24.2916 35.5 24.2916C33.7708 24.2916 32.375 25.6874 32.375 27.4166C32.375 29.1458 33.7708 30.5416 35.5 30.5416ZM38.625 11.7916H33.4166V16.9999H42.7083L38.625 11.7916ZM10.5 30.5416C12.2291 30.5416 13.625 29.1458 13.625 27.4166C13.625 25.6874 12.2291 24.2916 10.5 24.2916C8.77081 24.2916 7.37498 25.6874 7.37498 27.4166C7.37498 29.1458 8.77081 30.5416 10.5 30.5416ZM39.6666 8.66658L45.9166 16.9999V27.4166H41.75C41.75 30.8749 38.9583 33.6666 35.5 33.6666C32.0416 33.6666 29.25 30.8749 29.25 27.4166H16.75C16.75 30.8749 13.9583 33.6666 10.5 33.6666C7.04165 33.6666 4.24998 30.8749 4.24998 27.4166H0.083313V4.49992C0.083313 2.18742 1.93748 0.333252 4.24998 0.333252H33.4166V8.66658H39.6666ZM4.24998 4.49992V23.2499H5.83331C6.97915 21.9791 8.64581 21.1666 10.5 21.1666C12.3541 21.1666 14.0208 21.9791 15.1666 23.2499H29.25V4.49992H4.24998Z" fill="black"/>
</svg>
