<svg width="44" height="36" viewBox="0 0 44 36" fill="none" xmlns="http://www.w3.org/2000/svg">
<path d="M0.125 29.7188C0.125 31.1692 0.70117 32.5602 1.72676 33.5857C2.75235 34.6113 4.14335 35.1875 5.59375 35.1875H38.4062C39.8567 35.1875 41.2477 34.6113 42.2732 33.5857C43.2988 32.5602 43.875 31.1692 43.875 29.7188V14.6797H0.125V29.7188ZM6.57031 22.2969C6.57031 21.5199 6.87897 20.7747 7.4284 20.2253C7.97782 19.6758 8.723 19.3672 9.5 19.3672H14.1875C14.9645 19.3672 15.7097 19.6758 16.2591 20.2253C16.8085 20.7747 17.1172 21.5199 17.1172 22.2969V24.25C17.1172 25.027 16.8085 25.7722 16.2591 26.3216C15.7097 26.871 14.9645 27.1797 14.1875 27.1797H9.5C8.723 27.1797 7.97782 26.871 7.4284 26.3216C6.87897 25.7722 6.57031 25.027 6.57031 24.25V22.2969ZM38.4062 0.8125H5.59375C4.14335 0.8125 2.75235 1.38867 1.72676 2.41426C0.70117 3.43985 0.125 4.83085 0.125 6.28125V8.82031H43.875V6.28125C43.875 4.83085 43.2988 3.43985 42.2732 2.41426C41.2477 1.38867 39.8567 0.8125 38.4062 0.8125Z" fill="black"/>
</svg>
