<svg width="42" height="42" viewBox="0 0 42 42" fill="none" xmlns="http://www.w3.org/2000/svg">
<path d="M32.6208 5.23341L28.4542 3.04591C24.7958 1.12716 22.9667 0.166748 21 0.166748C19.0333 0.166748 17.2042 1.12508 13.5458 3.04591L12.8771 3.398L31.4667 14.0209L39.8333 9.83341C38.4875 8.30841 36.3167 7.16883 32.6208 5.22925V5.23341ZM41.3083 12.5917L32.9792 16.7584V23.0834C32.9792 23.4978 32.8145 23.8952 32.5215 24.1883C32.2285 24.4813 31.8311 24.6459 31.4167 24.6459C31.0023 24.6459 30.6048 24.4813 30.3118 24.1883C30.0188 23.8952 29.8542 23.4978 29.8542 23.0834V18.3188L22.5625 21.9647V41.6334C24.0583 41.2605 25.7604 40.3688 28.4542 38.9542L32.6208 36.7667C37.1021 34.4147 39.3438 33.2397 40.5896 31.1251C41.8333 29.0126 41.8333 26.3813 41.8333 21.1251V20.8813C41.8333 16.9376 41.8333 14.4709 41.3083 12.5917ZM19.4375 41.6334V21.9667L0.691668 12.5917C0.166668 14.4709 0.166668 16.9376 0.166668 20.8772V21.1209C0.166668 26.3813 0.166668 29.0126 1.41042 31.1251C2.65625 33.2397 4.89792 34.4167 9.37917 36.7688L13.5458 38.9542C16.2396 40.3688 17.9417 41.2605 19.4375 41.6334ZM2.16667 9.8355L21 19.2522L28.1063 15.7001L9.59375 5.12091L9.37917 5.23341C5.68542 7.17091 3.5125 8.3105 2.16667 9.83758V9.8355Z" fill="black"/>
</svg>
