<svg width="45" height="46" viewBox="0 0 45 46" fill="none" xmlns="http://www.w3.org/2000/svg">
<path d="M13.1812 0.786266C10.7872 0.899216 9.15234 1.28127 7.72314 1.84287C6.24399 2.41932 4.99029 3.19287 3.74289 4.44477C2.49549 5.69667 1.72734 6.95127 1.15494 8.43267C0.600992 9.86502 0.225692 11.5012 0.119942 13.8966C0.0141924 16.2919 -0.00920766 17.0619 0.00249234 23.172C0.0141923 29.2821 0.0411923 30.048 0.157292 32.4483C0.271592 34.8418 0.652292 36.4762 1.21389 37.9059C1.79124 39.385 2.56389 40.6383 3.81624 41.8861C5.06859 43.134 6.32229 43.9003 7.80729 44.4736C9.23829 45.0267 10.8749 45.4038 13.2698 45.5086C15.6647 45.6135 16.4356 45.6378 22.5439 45.6261C28.6522 45.6144 29.4212 45.5874 31.8211 45.4735C34.2209 45.3597 35.8468 44.9763 37.2769 44.4174C38.756 43.8387 40.0102 43.0674 41.2571 41.8146C42.5041 40.5618 43.2718 39.3063 43.8437 37.824C44.3981 36.393 44.7748 34.7563 44.8787 32.3632C44.9836 29.9616 45.0083 29.1948 44.9966 23.0856C44.9849 16.9764 44.9575 16.2105 44.8436 13.8111C44.7298 11.4117 44.3486 9.78222 43.7875 8.35167C43.2092 6.87252 42.4375 5.62017 41.1856 4.37142C39.9337 3.12267 38.6773 2.35542 37.1954 1.78482C35.7635 1.23087 34.1278 0.853316 31.7329 0.749816C29.338 0.646316 28.5671 0.619766 22.4566 0.631466C16.346 0.643166 15.581 0.669266 13.1812 0.786266ZM13.444 41.4609C11.2502 41.3655 10.0591 41.001 9.26529 40.6959C8.21409 40.2909 7.46529 39.8013 6.67419 39.0178C5.88309 38.2344 5.39709 37.4829 4.98669 36.4339C4.67844 35.6401 4.30719 34.4503 4.20459 32.2566C4.09299 29.8855 4.06959 29.1736 4.05654 23.1666C4.04349 17.1595 4.06644 16.4485 4.17039 14.0766C4.26399 11.8846 4.63074 10.6921 4.93539 9.89877C5.34039 8.84622 5.82819 8.09877 6.61344 7.30812C7.39869 6.51747 8.14794 6.03057 9.19779 5.62017C9.99069 5.31057 11.1805 4.94247 13.3733 4.83807C15.7462 4.72557 16.4572 4.70307 22.4633 4.69002C28.4695 4.67697 29.1823 4.69947 31.556 4.80387C33.748 4.89927 34.9409 5.26242 35.7334 5.56887C36.785 5.97387 37.5334 6.46032 38.324 7.24692C39.1147 8.03352 39.602 8.78007 40.0124 9.83217C40.3225 10.6228 40.6906 11.8122 40.7941 14.0064C40.907 16.3792 40.9327 17.0907 40.9435 23.0964C40.9543 29.1021 40.9331 29.8153 40.8292 32.1864C40.7333 34.3801 40.3697 35.5717 40.0642 36.3664C39.6592 37.4172 39.1709 38.1664 38.3852 38.9566C37.5995 39.7468 36.8512 40.2337 35.8009 40.6441C35.0089 40.9533 33.8177 41.3223 31.6267 41.4267C29.2538 41.5383 28.5428 41.5617 22.5344 41.5747C16.526 41.5878 15.8173 41.5635 13.4444 41.4609M31.7864 11.1034C31.7873 11.6375 31.9466 12.1593 32.244 12.6028C32.5415 13.0463 32.9638 13.3917 33.4576 13.5952C33.9513 13.7987 34.4943 13.8512 35.0179 13.7461C35.5415 13.641 36.0222 13.3829 36.3991 13.0046C36.7761 12.6263 37.0323 12.1447 37.1355 11.6207C37.2387 11.0967 37.1842 10.5539 36.9789 10.0609C36.7736 9.56789 36.4267 9.14684 35.9821 8.85101C35.5375 8.55518 35.0151 8.39785 34.481 8.39892C33.7651 8.40035 33.0791 8.68606 32.5738 9.19323C32.0684 9.70039 31.7852 10.3875 31.7864 11.1034ZM10.9469 23.1513C10.9595 29.5323 16.1417 34.6933 22.5214 34.6812C28.901 34.669 34.0657 29.4873 34.0535 23.1063C34.0414 16.7253 28.8578 11.5629 22.4773 11.5755C16.0967 11.5881 10.9348 16.7712 10.9469 23.1513ZM14.9996 23.1432C14.9967 21.6598 15.4337 20.2088 16.2554 18.9738C17.0771 17.7388 18.2465 16.7752 19.6159 16.2048C20.9852 15.6344 22.493 15.4829 23.9484 15.7694C25.4039 16.0559 26.7417 16.7676 27.7927 17.8144C28.8437 18.8613 29.5606 20.1962 29.8529 21.6506C30.1452 23.1049 29.9996 24.6132 29.4347 25.9848C28.8697 27.3564 27.9107 28.5296 26.679 29.3562C25.4472 30.1828 23.998 30.6255 22.5146 30.6285C21.5297 30.6305 20.5539 30.4386 19.6432 30.0635C18.7324 29.6884 17.9045 29.1376 17.2066 28.4425C16.5088 27.7474 15.9547 26.9216 15.576 26.0124C15.1973 25.1031 15.0015 24.1281 14.9996 23.1432Z" fill="white"/>
</svg>
