<svg width="35" height="34" viewBox="0 0 35 34" fill="none" xmlns="http://www.w3.org/2000/svg">
<path d="M30.625 0.253906C31.6196 0.253906 32.5734 0.648994 33.2766 1.35226C33.9799 2.05552 34.375 3.00934 34.375 4.00391V30.2539C34.375 31.2485 33.9799 32.2023 33.2766 32.9056C32.5734 33.6088 31.6196 34.0039 30.625 34.0039H4.375C3.38044 34.0039 2.42661 33.6088 1.72335 32.9056C1.02009 32.2023 0.625 31.2485 0.625 30.2539V4.00391C0.625 3.00934 1.02009 2.05552 1.72335 1.35226C2.42661 0.648994 3.38044 0.253906 4.375 0.253906H30.625ZM29.6875 29.3164V19.3789C29.6875 17.7578 29.0435 16.203 27.8972 15.0567C26.7509 13.9104 25.1961 13.2664 23.575 13.2664C21.9812 13.2664 20.125 14.2414 19.225 15.7039V13.6227H13.9938V29.3164H19.225V20.0727C19.225 18.6289 20.3875 17.4477 21.8313 17.4477C22.5274 17.4477 23.1951 17.7242 23.6874 18.2165C24.1797 18.7088 24.4563 19.3765 24.4563 20.0727V29.3164H29.6875ZM7.9 10.6789C8.73543 10.6789 9.53665 10.347 10.1274 9.75629C10.7181 9.16555 11.05 8.36434 11.05 7.52891C11.05 5.78516 9.64375 4.36016 7.9 4.36016C7.0596 4.36016 6.25361 4.69401 5.65936 5.28826C5.0651 5.88252 4.73125 6.6885 4.73125 7.52891C4.73125 9.27266 6.15625 10.6789 7.9 10.6789ZM10.5063 29.3164V13.6227H5.3125V29.3164H10.5063Z" fill="white"/>
</svg>
